<?xml version="1.0" encoding="UTF-8"?>
<!-- Generator: visioncortex VTracer 0.6.3 -->
<svg version="1.1" xmlns="http://www.w3.org/2000/svg" width="1280" height="1280">
<path d="M0 0 C1.23 0.42 1.23 0.42 2.49 0.85 C3.37 1.15 4.24 1.46 5.14 1.78 C6.08 2.1 7.01 2.42 7.97 2.75 C11.02 3.8 14.06 4.86 17.1 5.93 C19.22 6.66 21.35 7.39 23.47 8.12 C37.94 13.12 52.38 18.2 66.82 23.3 C75.39 26.32 83.97 29.27 92.6 32.11 C105.01 36.2 117.34 40.51 129.68 44.83 C142.79 49.42 155.93 53.95 169.09 58.42 C171.84 59.36 174.58 60.3 177.32 61.24 C185.43 64.02 193.55 66.77 201.7 69.41 C205.19 70.54 208.66 71.7 212.14 72.86 C213.76 73.4 215.4 73.92 217.03 74.44 C219.28 75.14 221.51 75.89 223.74 76.64 C224.4 76.84 225.05 77.03 225.73 77.23 C227.55 77.87 227.55 77.87 230.48 79.74 C232.04 84.91 232.99 90.17 233.89 95.49 C234.02 96.23 234.15 96.96 234.28 97.72 C234.7 100.15 235.12 102.58 235.53 105.01 C235.83 106.75 236.13 108.48 236.43 110.22 C237.07 113.92 237.71 117.62 238.35 121.32 C240.05 131.13 241.75 140.95 243.46 150.76 C243.63 151.75 243.81 152.73 243.98 153.75 C247.12 171.76 250.32 189.75 253.6 207.74 C253.72 208.4 253.84 209.05 253.97 209.73 C255.79 219.74 257.63 229.74 259.48 239.74 C259.6 240.42 259.73 241.1 259.86 241.8 C263.6 262.09 267.37 282.38 271.16 302.66 C272.06 307.52 272.97 312.38 273.88 317.24 C280.97 355.32 288.12 393.4 295.64 431.4 C298.17 444.19 300.63 457 303.1 469.8 C306.29 486.29 309.48 502.77 312.71 519.25 C329.62 605.6 346.21 692.02 378.98 864.86 C379.33 866.8 379.33 866.8 379.7 868.78 C380.35 872.31 380.99 875.84 381.63 879.37 C381.82 880.41 382.01 881.44 382.21 882.51 C382.38 883.44 382.55 884.37 382.72 885.34 C382.94 886.55 382.94 886.55 383.17 887.78 C383.48 889.74 383.48 889.74 383.48 891.74 C445.19 891.74 506.9 891.74 570.48 891.74 C568.02 895.84 565.46 899.29 562.35 902.86 C561.36 904.02 560.37 905.17 559.38 906.33 C558.89 906.9 558.4 907.48 557.9 908.07 C554.35 912.24 550.93 916.5 547.48 920.74 C542.74 926.56 537.97 932.34 533.1 938.05 C529.23 942.59 525.51 947.21 521.85 951.93 C518.03 956.85 514.03 961.51 509.8 966.1 C506.51 969.83 503.49 973.75 500.45 977.68 C496.95 982.18 493.32 986.52 489.48 990.74 C491.76 994.84 494.54 998.33 497.6 1001.86 C498.6 1003.02 499.59 1004.18 500.58 1005.34 C501.07 1005.91 501.56 1006.49 502.07 1007.08 C504.07 1009.44 506.03 1011.84 507.98 1014.24 C511.28 1018.3 514.65 1022.31 518.04 1026.3 C521.95 1030.9 525.77 1035.56 529.53 1040.29 C535.37 1047.63 541.38 1054.82 547.46 1061.97 C550.84 1065.95 554.11 1070.01 557.35 1074.1 C561.63 1079.4 566.06 1084.56 570.48 1089.74 C570.15 1090.4 569.82 1091.06 569.48 1091.74 C568.38 1091.73 567.28 1091.73 566.15 1091.73 C539.42 1091.63 512.68 1091.59 485.95 1091.61 C473.02 1091.62 460.09 1091.61 447.17 1091.56 C435.9 1091.51 424.63 1091.5 413.36 1091.53 C407.39 1091.54 401.42 1091.54 395.46 1091.5 C389.84 1091.45 384.22 1091.46 378.6 1091.5 C376.54 1091.51 374.48 1091.5 372.43 1091.47 C359.02 1091.07 359.02 1091.07 347.89 1097.63 C346.39 1099.31 344.91 1101.01 343.48 1102.74 C342.33 1103.75 341.15 1104.73 339.94 1105.66 C338.33 1106.91 336.71 1108.16 335.1 1109.41 C333.87 1110.36 332.63 1111.31 331.39 1112.26 C329.42 1113.78 327.47 1115.3 325.51 1116.83 C300.88 1135.96 274.85 1152.81 247.48 1167.74 C246.6 1168.22 245.72 1168.7 244.81 1169.19 C203.01 1191.88 157.79 1208.9 111.48 1219.74 C110.05 1220.08 110.05 1220.08 108.58 1220.43 C82.54 1226.57 56.13 1230.5 29.48 1232.74 C28.41 1232.83 27.35 1232.93 26.26 1233.03 C13.27 1234.06 0.25 1233.98 -12.77 1233.99 C-14.04 1233.99 -15.31 1233.99 -16.61 1233.99 C-37.07 1233.97 -57.23 1233.36 -77.52 1230.74 C-78.22 1230.65 -78.91 1230.56 -79.63 1230.47 C-98.08 1228.06 -116.39 1224.95 -134.52 1220.74 C-135.6 1220.49 -136.68 1220.24 -137.79 1219.98 C-192.92 1207.07 -245.88 1185.77 -294.52 1156.74 C-295.37 1156.23 -296.22 1155.73 -297.09 1155.21 C-321.93 1140.35 -345.18 1123.33 -367.55 1105 C-368.15 1104.53 -368.75 1104.06 -369.37 1103.57 C-371.52 1101.74 -371.52 1101.74 -373.58 1099.49 C-381.01 1092.04 -387.4 1091.59 -397.53 1091.55 C-399.53 1091.58 -401.52 1091.6 -403.51 1091.62 C-405.63 1091.62 -407.75 1091.61 -409.87 1091.59 C-415.6 1091.56 -421.32 1091.59 -427.05 1091.62 C-433.05 1091.65 -439.04 1091.63 -445.04 1091.61 C-456.38 1091.59 -467.73 1091.61 -479.07 1091.64 C-491.99 1091.68 -504.91 1091.67 -517.83 1091.66 C-544.39 1091.63 -570.96 1091.66 -597.52 1091.74 C-595.94 1088.44 -594.13 1085.87 -591.77 1083.05 C-590.97 1082.08 -590.17 1081.12 -589.34 1080.12 C-588.9 1079.59 -588.45 1079.05 -587.99 1078.5 C-586.38 1076.57 -584.79 1074.63 -583.2 1072.69 C-577.3 1065.5 -571.37 1058.35 -565.35 1051.26 C-561.85 1047.14 -558.42 1042.98 -555.01 1038.79 C-551.97 1035.06 -548.9 1031.33 -545.83 1027.61 C-545.24 1026.89 -544.65 1026.17 -544.04 1025.43 C-540.96 1021.69 -537.88 1017.95 -534.79 1014.22 C-528.64 1006.77 -522.51 999.31 -516.52 991.74 C-520.31 986.43 -524.41 981.51 -528.71 976.61 C-532.96 971.76 -537.08 966.85 -541.02 961.74 C-545.43 956.03 -550.07 950.56 -554.82 945.14 C-558.74 940.66 -562.54 936.1 -566.28 931.48 C-568.82 928.37 -571.42 925.3 -574.02 922.24 C-578.17 917.35 -582.27 912.43 -586.31 907.45 C-587.89 905.52 -589.48 903.59 -591.08 901.68 C-591.91 900.69 -592.73 899.7 -593.58 898.68 C-594.34 897.78 -595.09 896.88 -595.87 895.95 C-597.52 893.74 -597.52 893.74 -597.52 891.74 C-505.45 891.24 -505.45 891.24 -411.52 890.74 C-409.29 877.89 -407.07 865.04 -404.77 851.8 C-398.1 813.35 -391.33 774.91 -384.52 736.49 C-384.18 734.58 -384.18 734.58 -383.84 732.63 C-381.07 717 -378.3 701.37 -375.52 685.74 C-376.18 685.68 -376.84 685.61 -377.51 685.55 C-382.07 685.11 -386.57 684.65 -391.06 683.8 C-392.02 683.62 -392.98 683.44 -393.97 683.25 C-394.97 683.06 -395.97 682.87 -397 682.67 C-398.58 682.37 -398.58 682.37 -400.18 682.07 C-403.51 681.44 -406.83 680.81 -410.15 680.18 C-412.41 679.75 -414.68 679.32 -416.95 678.89 C-422.47 677.84 -428 676.79 -433.52 675.74 C-433.19 675.08 -432.86 674.42 -432.52 673.74 C-429.8 673.32 -427.16 673.03 -424.41 672.81 C-423.13 672.7 -423.13 672.7 -421.81 672.58 C-418.92 672.33 -416.02 672.09 -413.13 671.85 C-411.07 671.68 -409.01 671.5 -406.95 671.32 C-401.37 670.84 -395.78 670.37 -390.2 669.91 C-384.38 669.42 -378.57 668.92 -372.75 668.42 C-365.57 667.81 -358.38 667.19 -351.2 666.59 C-336.11 665.31 -321.02 664 -305.93 662.65 C-302.73 662.37 -299.52 662.09 -296.31 661.8 C-295.27 661.71 -294.24 661.62 -293.17 661.52 C-291.11 661.34 -289.05 661.16 -286.99 660.98 C-282 660.53 -277.01 660.09 -272.03 659.64 C-267.35 659.22 -262.67 658.81 -257.99 658.4 C-256.3 658.25 -254.6 658.1 -252.9 657.95 C-243.07 657.05 -233.41 656.53 -223.52 656.74 C-223.52 656.08 -223.52 655.42 -223.52 654.74 C-224.77 654.7 -224.77 654.7 -226.04 654.66 C-239.31 654.05 -252.36 652.01 -265.49 650.05 C-271.45 649.16 -277.4 648.29 -283.36 647.42 C-285.03 647.17 -286.7 646.93 -288.37 646.68 C-305.35 644.19 -322.34 641.75 -339.33 639.33 C-340.33 639.18 -340.33 639.18 -341.36 639.04 C-350.88 637.68 -360.4 636.32 -369.92 634.97 C-379.83 633.55 -389.74 632.14 -399.66 630.73 C-403.26 630.21 -406.86 629.7 -410.46 629.19 C-412.65 628.88 -414.83 628.56 -417.01 628.25 C-417.99 628.11 -418.98 627.97 -419.99 627.83 C-424.51 627.18 -429.02 626.52 -433.52 625.74 C-433.19 625.08 -432.86 624.42 -432.52 623.74 C-429.46 623.26 -426.47 622.91 -423.4 622.63 C-421.95 622.49 -421.95 622.49 -420.47 622.34 C-417.23 622.02 -413.98 621.72 -410.74 621.42 C-408.44 621.2 -406.15 620.97 -403.86 620.75 C-398.95 620.28 -394.04 619.81 -389.14 619.34 C-381.47 618.61 -373.8 617.88 -366.13 617.13 C-358.39 616.39 -350.65 615.64 -342.92 614.9 C-327.17 613.39 -311.43 611.85 -295.7 610.27 C-294.76 610.17 -293.82 610.08 -292.86 609.98 C-286.66 609.36 -280.47 608.74 -274.27 608.11 C-268.66 607.55 -263.04 606.98 -257.42 606.42 C-255.35 606.21 -253.29 606 -251.22 605.79 C-244.42 605.11 -237.64 604.49 -230.82 604 C-228.5 603.87 -228.5 603.87 -226.52 602.74 C-227.28 602.64 -228.04 602.54 -228.83 602.44 C-238.12 601.23 -247.42 600.03 -256.71 598.82 C-259.27 598.49 -261.82 598.16 -264.38 597.82 C-284.56 595.21 -304.74 592.58 -324.91 589.94 C-327.99 589.54 -331.07 589.14 -334.15 588.74 C-343.12 587.57 -352.08 586.4 -361.05 585.22 C-364.79 584.73 -368.52 584.25 -372.26 583.76 C-374.06 583.52 -375.86 583.29 -377.66 583.05 C-386.84 581.85 -396.02 580.67 -405.22 579.57 C-406.73 579.39 -408.24 579.2 -409.75 579.02 C-412.53 578.69 -415.3 578.37 -418.08 578.05 C-419.9 577.83 -419.9 577.83 -421.75 577.61 C-422.8 577.49 -423.85 577.37 -424.93 577.24 C-427.52 576.74 -427.52 576.74 -430.52 574.74 C-415.69 572.52 -400.84 570.65 -385.94 568.95 C-382.4 568.54 -378.87 568.13 -375.33 567.72 C-373.07 567.46 -370.81 567.2 -368.55 566.94 C-367.5 566.82 -366.45 566.7 -365.36 566.58 C-364.39 566.46 -363.42 566.35 -362.42 566.24 C-361.14 566.09 -361.14 566.09 -359.84 565.95 C-357.52 565.74 -357.52 565.74 -353.52 565.74 C-353.42 564.89 -353.32 564.04 -353.22 563.16 C-351.86 552.2 -349.81 541.43 -347.63 530.6 C-347.24 528.66 -346.85 526.71 -346.47 524.77 C-345.43 519.6 -344.4 514.43 -343.36 509.26 C-342.7 506.03 -342.05 502.79 -341.4 499.55 C-334.59 465.62 -327.54 431.76 -320.02 397.98 C-319.09 393.8 -318.16 389.62 -317.24 385.45 C-314.01 370.94 -310.79 356.42 -307.56 341.91 C-294.67 284.01 -281.83 226.09 -270.69 167.82 C-269.83 163.34 -268.96 158.86 -268.08 154.39 C-267.84 153.19 -267.61 151.99 -267.36 150.76 C-266.89 148.34 -266.41 145.92 -265.92 143.5 C-264.47 136.1 -263.18 128.7 -262.01 121.25 C-261.28 116.66 -260.52 112.08 -259.76 107.49 C-259.4 105.21 -259.04 102.92 -258.7 100.63 C-258.23 97.41 -257.7 94.19 -257.16 90.98 C-256.96 89.51 -256.96 89.51 -256.76 88.02 C-255.6 81.51 -255.6 81.51 -252.93 79.6 C-246.09 76.85 -239.13 74.49 -232.13 72.2 C-228.96 71.17 -225.8 70.12 -222.64 69.07 C-220.93 68.51 -219.22 67.94 -217.51 67.38 C-208.42 64.38 -199.34 61.33 -190.26 58.29 C-185.32 56.63 -180.38 54.97 -175.43 53.32 C-174.42 52.98 -173.41 52.64 -172.37 52.29 C-158.07 47.5 -143.78 42.72 -129.48 37.94 C-117.87 34.06 -106.27 30.17 -94.67 26.28 C-84.44 22.85 -74.22 19.42 -63.98 16.01 C-58.6 14.21 -53.21 12.4 -47.83 10.59 C-42.8 8.9 -37.76 7.22 -32.72 5.54 C-30.88 4.92 -29.03 4.31 -27.19 3.68 C-24.68 2.83 -22.16 2 -19.64 1.16 C-18.91 0.91 -18.19 0.67 -17.44 0.41 C-11.45 -1.55 -6 -2.08 0 0 Z " fill="#000100" transform="translate(655.52197265625,19.262451171875)"/>
<path d="M0 0 C2.53 2.2 4.91 4.48 7.26 6.86 C8.3 7.91 8.3 7.91 9.37 8.98 C15.03 14.98 19.19 21.72 23.26 28.86 C23.79 29.79 24.33 30.71 24.88 31.66 C31.63 44.1 35.69 58.83 37.26 72.86 C37.37 73.74 37.48 74.61 37.59 75.52 C41.57 113.38 34.1 147.23 11.26 177.86 C10.82 178.45 10.39 179.04 9.94 179.65 C5.75 185.33 1.41 190.79 -3.37 195.99 C-14.19 207.79 -19.96 217.6 -19.86 233.71 C-19.86 235.01 -19.86 235.01 -19.85 236.34 C-19.79 246.25 -19.37 256.15 -18.94 266.05 C-18.7 271.66 -18.48 277.27 -18.25 282.87 C-18.21 283.99 -18.16 285.1 -18.12 286.25 C-17.1 311.79 -16.57 337.3 -16.74 362.86 C-15.77 363.1 -14.81 363.34 -13.81 363.58 C-4.05 366 5.66 368.56 15.35 371.23 C16.84 371.64 18.32 372.05 19.81 372.46 C22.89 373.31 25.98 374.16 29.07 375.01 C32.97 376.08 36.88 377.16 40.78 378.23 C43.84 379.07 46.9 379.91 49.96 380.75 C51.4 381.15 52.84 381.54 54.28 381.94 C64.34 384.7 74.31 387.69 84.26 390.86 C84.54 387.7 84.78 384.53 85.01 381.36 C85.09 380.48 85.17 379.59 85.25 378.68 C85.75 371.18 84.22 366.24 79.26 360.58 C78.6 359.99 77.94 359.41 77.26 358.8 C71.18 353.04 68.24 347.31 67.98 338.89 C66.52 274.18 79.41 198.24 105.26 138.86 C105.66 137.93 106.07 137 106.49 136.03 C116.34 113.72 129.96 86.36 153.28 75.58 C157.55 74.03 161.48 73.58 166.01 74.3 C170.21 77.22 171.84 81.83 172.85 86.72 C174.23 97.41 173.15 108.12 172.03 118.78 C171.83 120.67 171.83 120.67 171.63 122.6 C170.13 136.74 168.19 150.82 166.27 164.91 C161.91 197.02 158.07 229.18 154.65 261.4 C152.89 277.93 151.01 294.43 148.66 310.88 C148.5 311.96 148.5 311.96 148.35 313.05 C142.58 353.41 142.58 353.41 135.2 362.36 C130.25 368.74 129.54 377.27 128.57 385.05 C128.44 386.01 128.31 386.97 128.18 387.96 C127.57 392.64 127.2 397.13 127.26 401.86 C142.27 406.29 157.31 410.58 172.41 414.69 C177.91 416.19 183.4 417.7 188.9 419.2 C191.14 419.82 193.37 420.43 195.61 421.04 C196.71 421.34 197.81 421.65 198.95 421.96 C201.14 422.56 203.33 423.16 205.53 423.76 C211.68 425.44 217.83 427.13 223.98 428.83 C225.86 429.35 227.75 429.87 229.64 430.38 C232.25 431.09 234.85 431.81 237.45 432.54 C238.22 432.74 238.99 432.95 239.78 433.16 C245.03 434.64 245.03 434.64 247.26 436.86 C247.85 439.08 247.85 439.08 248.34 441.89 C248.62 443.49 248.62 443.49 248.91 445.11 C249.1 446.28 249.3 447.45 249.51 448.65 C249.72 449.87 249.94 451.09 250.16 452.35 C250.62 455 251.08 457.65 251.54 460.3 C252.27 464.54 253.01 468.78 253.75 473.03 C254.77 478.85 255.79 484.68 256.8 490.51 C260.42 511.28 264.13 532.02 267.88 552.76 C268.14 554.2 268.4 555.64 268.66 557.08 C276.21 598.91 284.08 640.64 292.9 682.21 C293.04 682.88 293.18 683.55 293.33 684.24 C293.62 685.6 293.9 686.95 294.19 688.3 C297.68 704.76 301.01 721.25 304.31 737.75 C304.75 739.93 305.18 742.11 305.62 744.3 C308.6 759.13 311.51 773.97 314.26 788.84 C314.53 790.29 314.79 791.74 315.07 793.19 C315.44 795.2 315.81 797.21 316.17 799.21 C316.38 800.36 316.59 801.5 316.81 802.67 C317.25 805.79 317.29 808.72 317.26 811.86 C247.1 811.88 176.95 811.9 106.8 811.91 C105.24 811.91 105.24 811.91 103.65 811.91 C81.11 811.91 58.57 811.91 36.02 811.91 C24.97 811.92 13.91 811.92 2.86 811.92 C1.21 811.92 1.21 811.92 -0.47 811.92 C-36.16 811.92 -71.85 811.93 -107.54 811.94 C-144.21 811.95 -180.87 811.96 -217.53 811.96 C-222.7 811.96 -227.87 811.96 -233.04 811.96 C-234.57 811.96 -234.57 811.96 -236.13 811.96 C-252.55 811.96 -268.97 811.96 -285.39 811.97 C-301.88 811.98 -318.36 811.98 -334.85 811.98 C-344.66 811.98 -354.47 811.98 -364.28 811.98 C-370.82 811.99 -377.36 811.99 -383.9 811.99 C-387.63 811.98 -391.36 811.98 -395.1 811.99 C-399.11 811.99 -403.12 811.99 -407.12 811.99 C-408.3 811.99 -409.48 811.99 -410.69 811.99 C-411.75 811.99 -412.81 811.99 -413.9 811.99 C-415.28 811.99 -415.28 811.99 -416.68 811.99 C-418.74 811.86 -418.74 811.86 -419.74 810.86 C-419.58 802.27 -417.82 793.71 -416.37 785.26 C-416.13 783.84 -415.89 782.42 -415.65 781 C-415.01 777.2 -414.36 773.41 -413.71 769.61 C-413.3 767.22 -412.9 764.83 -412.49 762.45 C-410.71 751.99 -408.92 741.53 -407.12 731.08 C-406.76 728.97 -406.4 726.86 -406.04 724.75 C-401.2 696.47 -396.14 668.23 -390.74 640.05 C-390.5 638.8 -390.27 637.55 -390.02 636.26 C-389.35 632.74 -388.67 629.23 -387.99 625.72 C-387.79 624.67 -387.6 623.63 -387.39 622.55 C-387.2 621.59 -387.01 620.63 -386.82 619.65 C-386.66 618.81 -386.5 617.98 -386.33 617.12 C-385.73 614.83 -384.88 612.94 -383.74 610.86 C-375.55 611.41 -367.65 612.71 -359.62 614.36 C-358.48 614.59 -357.35 614.81 -356.18 615.05 C-347.88 616.73 -347.88 616.73 -346.74 617.86 C-346.64 619.71 -346.61 621.56 -346.61 623.41 C-346.61 624.62 -346.6 625.83 -346.6 627.07 C-346.6 628.42 -346.6 629.76 -346.6 631.11 C-346.6 632.52 -346.59 633.93 -346.59 635.35 C-346.58 638.39 -346.58 641.44 -346.57 644.49 C-346.57 649.31 -346.55 654.14 -346.53 658.96 C-346.53 660.61 -346.52 662.27 -346.51 663.92 C-346.51 664.75 -346.51 665.57 -346.5 666.43 C-346.46 677.66 -346.43 688.9 -346.42 700.14 C-346.41 707.71 -346.39 715.29 -346.35 722.86 C-346.33 726.87 -346.31 730.87 -346.32 734.88 C-346.32 738.65 -346.31 742.43 -346.28 746.21 C-346.27 748.24 -346.28 750.27 -346.29 752.3 C-346.19 762.3 -344.45 772.06 -337.74 779.86 C-329.43 786.46 -322.31 788.16 -311.88 788.28 C-310.84 788.3 -309.81 788.32 -308.74 788.34 C-305.45 788.4 -302.16 788.44 -298.87 788.49 C-296.63 788.53 -294.39 788.57 -292.16 788.61 C-286.69 788.7 -281.21 788.79 -275.74 788.86 C-275.52 786.98 -275.52 786.98 -275.3 785.06 C-273.07 765.8 -259.48 747.62 -244.74 735.86 C-226.01 722.26 -204.46 715.9 -181.44 719.19 C-176.75 720.06 -172.27 721.36 -167.74 722.86 C-166.69 723.21 -165.63 723.56 -164.55 723.93 C-144.11 731.61 -128.01 748.72 -118.8 768.25 C-116.05 775.03 -113.74 781.51 -113.74 788.86 C-59.95 788.86 -6.16 788.86 49.26 788.86 C49.92 785.56 50.58 782.26 51.26 778.86 C58.52 756.6 72.62 738.92 93.32 727.76 C112.71 717.97 135.4 715.48 156.2 722.13 C177.66 729.81 194.56 744.84 205.26 764.86 C208.96 772.71 210.83 780.35 212.26 788.86 C217.81 788.79 223.36 788.71 228.91 788.6 C230.79 788.57 232.68 788.54 234.56 788.52 C237.29 788.48 240.01 788.43 242.73 788.38 C243.56 788.37 244.39 788.36 245.25 788.36 C253.64 788.15 260.18 785.94 266.26 779.86 C270.01 774.68 272.38 770.4 272.4 763.89 C272.4 762.87 272.41 761.84 272.42 760.78 C272.42 759.66 272.42 758.53 272.42 757.37 C272.42 756.19 272.43 755 272.43 753.78 C272.45 750.53 272.45 747.27 272.46 744.02 C272.46 741.98 272.47 739.95 272.47 737.91 C272.48 731.53 272.49 725.16 272.5 718.78 C272.5 711.43 272.52 704.09 272.55 696.74 C272.57 691.05 272.58 685.37 272.58 679.68 C272.58 676.29 272.59 672.89 272.61 669.5 C272.62 665.71 272.62 661.92 272.61 658.13 C272.62 657.02 272.63 655.9 272.64 654.76 C272.6 646.51 271.34 639.31 266.57 632.43 C264.26 629.05 264.26 629.05 264.26 626.86 C263.64 626.62 263.02 626.37 262.38 626.11 C259.85 624.63 259.54 623.43 258.26 620.86 C256.93 620.18 255.6 619.51 254.26 618.86 C249.67 614.71 249.67 614.71 248.2 611.68 C247.39 609.68 247.39 609.68 245.26 608.86 C242.73 607.6 242.49 606.33 241.26 603.86 C240.38 603.45 240.38 603.45 239.49 603.02 C236.63 601.54 234.81 599.62 232.55 597.32 C231.66 596.41 230.76 595.5 229.83 594.56 C228.89 593.6 227.95 592.64 227.01 591.68 C221.46 586.02 215.94 580.41 209.9 575.27 C205.87 571.81 202.56 567.99 199.26 563.86 C196.9 561.39 194.6 559.12 191.88 557.05 C188.88 554.55 186.49 551.78 183.95 548.82 C181.11 545.54 178.15 542.57 174.76 539.86 C172.05 537.7 169.68 535.35 167.26 532.86 C166.43 532.04 165.61 531.21 164.76 530.36 C163.93 529.54 163.11 528.71 162.26 527.86 C161.41 527.04 160.57 526.21 159.7 525.36 C157.26 522.86 157.26 522.86 155.26 520.3 C153.14 517.72 150.89 515.91 148.26 513.86 C147.52 513.08 146.77 512.3 146.01 511.49 C136.77 502.67 126.52 498.84 113.79 498.66 C112.53 498.64 111.27 498.62 109.97 498.6 C108.61 498.58 107.25 498.56 105.89 498.55 C104.49 498.53 103.08 498.51 101.68 498.48 C98 498.43 94.32 498.38 90.64 498.33 C86.88 498.28 83.12 498.23 79.36 498.17 C71.99 498.06 64.63 497.96 57.26 497.86 C55.92 495.19 56.11 493.07 56.08 490.08 C56.06 488.91 56.03 487.74 56.01 486.53 C55.97 484.07 55.94 481.61 55.92 479.15 C55.74 471.8 54.86 466.29 51.26 459.86 C50.74 458.81 50.23 457.76 49.7 456.68 C45.35 451.66 38.8 448.15 32.26 446.86 C30.27 446.77 28.29 446.73 26.3 446.73 C24.46 446.72 24.46 446.72 22.58 446.72 C21.22 446.72 19.85 446.72 18.49 446.72 C17.04 446.71 15.59 446.71 14.14 446.7 C10.16 446.69 6.18 446.69 2.2 446.69 C-2.1 446.68 -6.39 446.68 -10.69 446.67 C-21.06 446.65 -31.43 446.64 -41.81 446.63 C-46.69 446.62 -51.58 446.62 -56.46 446.61 C-72.7 446.6 -88.94 446.58 -105.19 446.57 C-109.4 446.57 -113.62 446.57 -117.83 446.57 C-118.88 446.57 -119.93 446.57 -121 446.57 C-137.97 446.56 -154.94 446.53 -171.91 446.5 C-189.33 446.47 -206.75 446.45 -224.17 446.45 C-233.95 446.44 -243.73 446.44 -253.51 446.41 C-261.84 446.39 -270.17 446.38 -278.5 446.39 C-282.75 446.39 -287 446.39 -291.25 446.37 C-295.14 446.36 -299.04 446.36 -302.93 446.37 C-304.34 446.37 -305.74 446.37 -307.14 446.36 C-317.75 446.27 -328.48 447.56 -336.74 454.86 C-342.57 462.67 -345.48 471.26 -346.74 480.86 C-351.15 481.97 -355.23 481.94 -359.74 481.86 C-359.17 472.77 -357.88 463.9 -356.3 454.93 C-356.09 453.64 -355.87 452.35 -355.65 451.03 C-355.43 449.79 -355.22 448.55 -355 447.27 C-354.8 446.16 -354.61 445.05 -354.41 443.9 C-354.19 442.9 -353.97 441.9 -353.74 440.86 C-353.57 439.97 -353.41 439.07 -353.23 438.15 C-350.74 434.32 -346.9 433.96 -342.62 432.87 C-341.6 432.59 -340.57 432.3 -339.51 432.01 C-337.05 431.34 -334.59 430.68 -332.13 430.03 C-327.12 428.7 -322.12 427.33 -317.12 425.96 C-305.71 422.85 -294.3 419.76 -282.87 416.68 C-276.39 414.93 -269.9 413.18 -263.42 411.42 C-258.36 410.06 -253.31 408.69 -248.26 407.33 C-235.41 403.86 -222.58 400.37 -209.74 396.86 C-210.23 389.65 -210.72 382.45 -211.2 375.24 C-211.43 371.89 -211.66 368.53 -211.88 365.18 C-211.97 363.9 -212.06 362.62 -212.14 361.3 C-212.23 360.01 -212.32 358.73 -212.41 357.4 C-212.67 353.49 -212.94 349.58 -213.21 345.67 C-213.57 340.45 -213.9 335.23 -214.22 330.01 C-214.3 328.76 -214.37 327.5 -214.46 326.2 C-214.61 323.84 -214.75 321.47 -214.88 319.11 C-215.61 307.86 -217.72 299.08 -225.74 290.86 C-228.94 288.12 -232.3 285.66 -235.74 283.24 C-260.42 265.63 -268.26 239.31 -273.43 210.53 C-275.29 199.37 -276.06 188.14 -276.74 176.86 C-276.8 176.03 -276.86 175.19 -276.92 174.33 C-277.81 161.34 -277.87 148.34 -277.92 135.33 C-277.93 133.38 -277.94 131.42 -277.95 129.47 C-278.14 99.8 -278.14 99.8 -273.87 94.57 C-271.3 92.51 -268.89 91.72 -265.74 90.86 C-261.69 94.14 -260.85 97.34 -260.08 102.29 C-259.95 103.04 -259.82 103.78 -259.69 104.55 C-259.27 107.01 -258.87 109.48 -258.46 111.95 C-258.17 113.69 -257.87 115.44 -257.58 117.18 C-256.79 121.78 -256.03 126.39 -255.27 131 C-254.51 135.57 -253.74 140.14 -252.96 144.72 C-252.51 147.41 -252.06 150.1 -251.6 152.79 C-251.3 154.56 -251 156.34 -250.7 158.11 C-247.93 174.56 -247.93 174.56 -246.69 182.7 C-246.37 184.79 -246.05 186.88 -245.72 188.96 C-245.33 191.45 -244.95 193.94 -244.6 196.43 C-244.43 197.51 -244.25 198.59 -244.08 199.71 C-243.87 201.1 -243.87 201.1 -243.66 202.53 C-242.41 205.71 -240.78 206.45 -237.74 207.86 C-235.15 208.29 -235.15 208.29 -232.55 208.18 C-231.26 208.17 -231.26 208.17 -229.95 208.16 C-227.54 208.06 -227.54 208.06 -225.74 205.86 C-225.43 203.35 -225.43 203.35 -225.48 200.4 C-225.47 199.25 -225.47 198.11 -225.46 196.93 C-225.48 195.06 -225.48 195.06 -225.49 193.15 C-225.5 191.85 -225.5 190.56 -225.51 189.22 C-225.62 174.88 -226.66 160.6 -227.74 146.3 C-229.92 117.22 -229.92 117.22 -230.05 105.46 C-230.07 104.68 -230.09 103.9 -230.11 103.09 C-230.1 97.97 -229.12 94.41 -226.74 89.86 C-224.28 87.96 -221.82 87.26 -218.74 86.86 C-215.7 87.76 -214.43 88.8 -212.71 91.46 C-209.82 96.96 -208.71 102.17 -207.85 108.29 C-207.69 109.29 -207.54 110.3 -207.38 111.33 C-206.89 114.61 -206.41 117.89 -205.93 121.18 C-205.59 123.45 -205.24 125.73 -204.9 128.01 C-204.37 131.5 -203.84 135 -203.31 138.49 C-201.72 149.06 -200.04 159.61 -198.32 170.16 C-197.88 172.86 -197.44 175.57 -197 178.28 C-195.72 186.17 -194.39 194.04 -192.74 201.86 C-190.04 202.76 -188.17 203.08 -185.37 203.18 C-184.24 203.23 -184.24 203.23 -183.09 203.29 C-179.71 202.68 -178.16 201.28 -175.74 198.86 C-175.12 195.87 -175.12 195.87 -175.42 192.5 C-175.47 191.2 -175.52 189.91 -175.58 188.57 C-175.66 187.16 -175.75 185.74 -175.83 184.32 C-175.9 182.84 -175.97 181.36 -176.03 179.88 C-176.17 176.78 -176.33 173.67 -176.5 170.57 C-176.74 166.04 -176.94 161.51 -177.13 156.97 C-177.37 151.11 -177.63 145.24 -177.9 139.38 C-177.95 138.29 -177.95 138.29 -178 137.18 C-178.13 134.22 -178.27 131.25 -178.41 128.29 C-178.62 123.81 -178.82 119.34 -179.02 114.87 C-179.12 112.82 -179.21 110.78 -179.31 108.74 C-179.47 105.12 -179.61 101.49 -179.74 97.86 C-179.8 96.72 -179.86 95.59 -179.92 94.41 C-179.96 93.35 -179.99 92.28 -180.03 91.18 C-180.09 89.78 -180.09 89.78 -180.15 88.36 C-179.61 85.06 -178.3 83.94 -175.74 81.86 C-173.3 80.86 -173.3 80.86 -170.74 80.86 C-165.04 83.78 -163.74 89.17 -161.74 94.86 C-160.67 98.4 -159.78 101.96 -158.93 105.55 C-158.68 106.6 -158.43 107.65 -158.18 108.73 C-154.55 124.56 -151.79 140.57 -149.12 156.58 C-148.77 158.7 -148.41 160.81 -148.04 162.92 C-145.43 178.36 -144.37 193.48 -144.3 209.11 C-144.3 209.92 -144.29 210.73 -144.29 211.56 C-144.21 227.3 -145.67 243.18 -151.74 257.86 C-152.04 258.59 -152.34 259.32 -152.65 260.07 C-155.68 266.29 -160.38 271.2 -164.93 276.34 C-168.99 280.93 -172.69 285.53 -175.74 290.86 C-176.67 292.41 -176.67 292.41 -177.62 293.99 C-182.25 306.14 -177.49 322.82 -175.49 335.11 C-175.17 337.16 -174.85 339.2 -174.53 341.24 C-173.9 345.27 -173.26 349.29 -172.62 353.31 C-171.46 360.61 -170.38 367.92 -169.3 375.24 C-169.02 377.16 -168.74 379.09 -168.46 381.01 C-168.32 381.93 -168.19 382.85 -168.05 383.8 C-167.95 384.48 -167.85 385.16 -167.74 385.86 C-167.18 385.7 -166.63 385.53 -166.05 385.36 C-148.62 380.18 -131.09 375.39 -113.53 370.68 C-110 369.73 -106.46 368.78 -102.93 367.83 C-98.95 366.76 -94.96 365.69 -90.98 364.62 C-89.2 364.14 -89.2 364.14 -87.39 363.65 C-85.71 363.2 -85.71 363.2 -83.99 362.74 C-81.84 362.16 -79.68 361.57 -77.53 360.96 C-76.55 360.69 -75.57 360.41 -74.55 360.13 C-73.26 359.76 -73.26 359.76 -71.95 359.39 C-69.74 358.86 -69.74 358.86 -66.74 358.86 C-66.75 357.88 -66.76 356.9 -66.77 355.88 C-67 332.18 -66.59 308.55 -65.74 284.86 C-64.85 260.56 -64.85 260.56 -64.44 236.25 C-64.43 234.81 -64.42 233.37 -64.4 231.93 C-64.21 216.4 -69.53 207.5 -79.99 196.18 C-105.86 168.03 -122.23 134.55 -122.12 95.93 C-122.12 94.85 -122.12 94.85 -122.12 93.75 C-122.01 64.62 -114.35 35.81 -95.74 12.86 C-95.11 12.06 -94.47 11.26 -93.81 10.44 C-71.24 -16.53 -27.81 -21.67 0 0 Z " fill="#F8D819" transform="translate(691.7421875,99.13671875)"/>
<path d="M0 0 C1.37 -0 1.37 -0 2.76 -0.01 C4.28 -0.01 4.28 -0.01 5.84 -0 C6.91 -0 7.98 -0.01 9.09 -0.01 C12.73 -0.01 16.37 -0.01 20.01 -0.01 C22.63 -0.01 25.24 -0.01 27.86 -0.01 C33.58 -0.02 39.29 -0.02 45.01 -0.02 C53.51 -0.02 62.01 -0.02 70.5 -0.03 C86.56 -0.04 102.63 -0.04 118.69 -0.04 C131.08 -0.04 143.48 -0.04 155.88 -0.05 C159.45 -0.05 163.01 -0.05 166.58 -0.05 C167.46 -0.05 168.35 -0.05 169.26 -0.05 C194.2 -0.06 219.13 -0.06 244.06 -0.06 C245.01 -0.06 245.95 -0.06 246.92 -0.06 C251.68 -0.06 256.45 -0.06 261.22 -0.06 C262.17 -0.06 263.12 -0.06 264.09 -0.06 C266.01 -0.06 267.92 -0.06 269.84 -0.06 C299.65 -0.06 329.45 -0.07 359.26 -0.08 C392.72 -0.09 426.18 -0.1 459.64 -0.1 C463.2 -0.1 466.77 -0.1 470.33 -0.1 C471.21 -0.1 472.09 -0.1 472.99 -0.1 C487.15 -0.1 501.3 -0.11 515.45 -0.12 C529.66 -0.13 543.88 -0.13 558.09 -0.12 C566.55 -0.12 575 -0.12 583.45 -0.13 C589.75 -0.13 596.05 -0.13 602.35 -0.12 C604.91 -0.12 607.47 -0.12 610.02 -0.13 C613.48 -0.14 616.94 -0.13 620.4 -0.12 C621.41 -0.13 622.42 -0.13 623.46 -0.14 C624.38 -0.13 625.29 -0.13 626.24 -0.12 C627.03 -0.12 627.82 -0.12 628.64 -0.12 C631.07 0.16 632.7 0.92 634.81 2.13 C618.79 14.24 602.72 26.29 585.81 37.13 C585.17 37.54 584.53 37.94 583.88 38.36 C513.39 83.21 433.11 109.96 349.81 116.13 C348.54 116.22 347.28 116.32 345.98 116.41 C336.07 117.09 326.18 117.37 316.25 117.38 C315.03 117.38 315.03 117.38 313.8 117.38 C238.3 117.28 164.84 99.69 96.81 67.13 C95.95 66.72 95.1 66.32 94.22 65.9 C61.04 50.08 20.13 28.41 -5.19 1.13 C-3.64 -0.43 -2.16 0 0 0 Z " fill="#F9D819" transform="translate(327.1912344098091,1108.8735001683235)"/>
<path d="M0 0 C2.53 2.2 4.91 4.48 7.26 6.86 C8.3 7.91 8.3 7.91 9.37 8.98 C15.03 14.98 19.19 21.72 23.26 28.86 C23.79 29.79 24.33 30.71 24.88 31.66 C31.63 44.1 35.69 58.83 37.26 72.86 C37.37 73.74 37.48 74.61 37.59 75.52 C41.57 113.38 34.1 147.23 11.26 177.86 C10.82 178.45 10.39 179.04 9.94 179.65 C5.75 185.33 1.41 190.79 -3.37 195.99 C-14.19 207.79 -19.96 217.6 -19.86 233.71 C-19.86 234.58 -19.86 235.45 -19.85 236.34 C-19.79 246.25 -19.37 256.15 -18.94 266.05 C-18.7 271.66 -18.48 277.27 -18.25 282.87 C-18.21 283.99 -18.16 285.1 -18.12 286.25 C-17.1 311.79 -16.55 337.3 -16.74 362.86 C-21.97 361.92 -27.09 360.82 -32.18 359.29 C-33.09 359.01 -34.01 358.74 -34.95 358.46 C-36.82 357.89 -38.68 357.31 -40.53 356.72 C-47.23 354.76 -52.07 354.91 -58.74 356.86 C-59.46 357.06 -60.17 357.25 -60.91 357.45 C-62.53 357.89 -64.14 358.37 -65.74 358.86 C-68.31 353.72 -66.93 345.81 -66.93 340.05 C-66.93 339.17 -66.93 338.29 -66.93 337.39 C-66.93 319.91 -66.36 302.46 -65.74 284.99 C-64.85 260.62 -64.85 260.62 -64.44 236.24 C-64.43 234.81 -64.42 233.37 -64.4 231.93 C-64.21 216.4 -69.53 207.5 -79.99 196.18 C-105.86 168.03 -122.23 134.55 -122.12 95.93 C-122.12 95.21 -122.12 94.49 -122.12 93.75 C-122.01 64.62 -114.35 35.81 -95.74 12.86 C-95.11 12.06 -94.47 11.26 -93.81 10.44 C-71.24 -16.53 -27.81 -21.67 0 0 Z " fill="#F7FAF9" transform="translate(691.7421875,99.13671875)"/>
<path d="M0 0 C15.68 16.68 16.44 55.38 20 77 C20.3 78.74 20.3 78.74 20.6 80.52 C23.23 96.14 24.39 111.44 24.44 127.25 C24.44 128.06 24.45 128.86 24.46 129.69 C24.53 145.43 23.07 161.32 17 176 C16.7 176.73 16.4 177.45 16.09 178.2 C13.06 184.43 8.37 189.34 3.81 194.47 C-0.25 199.07 -3.94 203.66 -7 209 C-7.62 210.03 -8.24 211.06 -8.88 212.12 C-13.55 224.38 -8.7 241.23 -6.69 253.62 C-6.37 255.59 -6.06 257.56 -5.75 259.54 C-5.29 262.46 -4.83 265.39 -4.36 268.32 C-3.29 275.07 -2.26 281.82 -1.27 288.59 C-1.14 289.45 -1.01 290.31 -0.88 291.2 C-0.26 295.51 0.14 299.63 0 304 C-7.45 307.01 -15.13 309.04 -22.88 311.12 C-25.5 311.83 -28.12 312.54 -30.74 313.26 C-31.9 313.57 -33.05 313.88 -34.24 314.2 C-36.93 314.89 -36.93 314.89 -39 316 C-39 315.01 -39 314.02 -39 313 C-39.66 313 -40.32 313 -41 313 C-41.05 312.35 -41.09 311.7 -41.14 311.02 C-41.63 304.08 -42.11 297.13 -42.6 290.19 C-42.78 287.61 -42.96 285.04 -43.14 282.47 C-43.23 281.23 -43.31 280 -43.4 278.72 C-43.49 277.48 -43.58 276.24 -43.67 274.97 C-43.84 272.45 -44.02 269.93 -44.2 267.42 C-44.66 261.02 -45.09 254.62 -45.47 248.21 C-45.59 246.33 -45.59 246.33 -45.71 244.41 C-45.86 242.04 -46 239.67 -46.13 237.3 C-46.86 226.03 -48.96 217.24 -57 209 C-60.2 206.26 -63.56 203.8 -67 201.38 C-91.68 183.77 -99.52 157.45 -104.69 128.67 C-106.54 117.51 -107.31 106.28 -108 95 C-108.09 93.74 -108.09 93.74 -108.18 92.46 C-109.07 79.48 -109.12 66.48 -109.18 53.47 C-109.18 51.51 -109.19 49.56 -109.21 47.6 C-109.4 17.94 -109.4 17.94 -105.13 12.71 C-102.56 10.65 -100.15 9.86 -97 9 C-92.95 12.28 -92.11 15.48 -91.34 20.43 C-91.21 21.17 -91.08 21.92 -90.95 22.68 C-90.52 25.15 -90.12 27.62 -89.72 30.09 C-89.43 31.83 -89.13 33.57 -88.83 35.31 C-88.05 39.92 -87.29 44.52 -86.53 49.13 C-85.77 53.71 -84.99 58.28 -84.22 62.85 C-83.77 65.54 -83.31 68.23 -82.86 70.92 C-82.56 72.7 -82.26 74.47 -81.96 76.25 C-79.19 92.7 -79.19 92.7 -77.95 100.84 C-77.63 102.93 -77.3 105.01 -76.97 107.1 C-76.58 109.58 -76.21 112.07 -75.86 114.57 C-75.6 116.19 -75.6 116.19 -75.33 117.84 C-75.2 118.77 -75.06 119.71 -74.91 120.66 C-73.67 123.85 -72.04 124.59 -69 126 C-66.41 126.43 -66.41 126.43 -63.81 126.31 C-62.95 126.31 -62.09 126.3 -61.21 126.3 C-58.8 126.2 -58.8 126.2 -57 124 C-56.69 121.49 -56.69 121.49 -56.73 118.54 C-56.73 116.82 -56.73 116.82 -56.72 115.07 C-56.74 113.2 -56.74 113.2 -56.75 111.29 C-56.76 109.99 -56.76 108.69 -56.77 107.36 C-56.88 93.01 -57.92 78.74 -59 64.44 C-61.18 35.36 -61.18 35.36 -61.31 23.6 C-61.33 22.82 -61.35 22.03 -61.37 21.23 C-61.36 16.11 -60.38 12.55 -58 8 C-55.54 6.1 -53.08 5.39 -50 5 C-46.96 5.9 -45.68 6.94 -43.97 9.6 C-41.08 15.1 -39.97 20.3 -39.11 26.43 C-38.95 27.43 -38.8 28.44 -38.64 29.47 C-38.14 32.75 -37.67 36.03 -37.19 39.31 C-36.84 41.59 -36.5 43.87 -36.15 46.15 C-35.62 49.64 -35.09 53.13 -34.57 56.63 C-32.98 67.19 -31.3 77.75 -29.58 88.29 C-29.13 91 -28.7 93.71 -28.26 96.42 C-26.98 104.31 -25.65 112.17 -24 120 C-21.3 120.9 -19.43 121.22 -16.62 121.31 C-15.87 121.35 -15.12 121.39 -14.35 121.43 C-10.97 120.81 -9.42 119.42 -7 117 C-6.38 114 -6.38 114 -6.68 110.63 C-6.73 109.34 -6.78 108.04 -6.84 106.71 C-6.92 105.29 -7.01 103.88 -7.09 102.46 C-7.16 100.98 -7.23 99.5 -7.29 98.02 C-7.43 94.91 -7.59 91.81 -7.75 88.7 C-8 84.17 -8.2 79.64 -8.38 75.11 C-8.63 69.24 -8.88 63.38 -9.15 57.51 C-9.19 56.79 -9.22 56.06 -9.26 55.32 C-9.39 52.35 -9.53 49.39 -9.67 46.42 C-9.88 41.95 -10.08 37.48 -10.28 33 C-10.38 30.96 -10.47 28.92 -10.57 26.88 C-10.73 23.25 -10.87 19.63 -11 16 C-11.09 14.29 -11.09 14.29 -11.18 12.55 C-11.22 11.48 -11.25 10.42 -11.29 9.32 C-11.33 8.39 -11.37 7.45 -11.41 6.49 C-10.87 3.2 -9.53 2.08 -7 0 C-4.21 -1.4 -2.94 -0.98 0 0 Z " fill="#F7FAF9" transform="translate(523,181)"/>
<path d="M0 0 C5.15 3.9 6.12 8.87 7 15 C7.64 24.7 6.79 34.28 5.77 43.92 C5.64 45.18 5.51 46.44 5.37 47.74 C3.87 61.87 1.93 75.95 0.01 90.04 C-4.35 122.16 -8.19 154.31 -11.61 186.54 C-13.37 203.07 -15.25 219.56 -17.6 236.02 C-17.7 236.74 -17.8 237.45 -17.91 238.19 C-23.68 278.55 -23.68 278.55 -31.06 287.5 C-36.67 294.73 -37.04 304.8 -38.19 313.56 C-38.36 314.86 -38.54 316.15 -38.72 317.49 C-39.16 320.66 -39.58 323.83 -40 327 C-45.5 326.41 -50.64 325.45 -55.96 323.97 C-56.68 323.77 -57.4 323.58 -58.14 323.37 C-59.65 322.96 -61.15 322.55 -62.65 322.13 C-64.95 321.5 -67.26 320.87 -69.57 320.24 C-71.04 319.84 -72.5 319.43 -73.96 319.03 C-74.66 318.84 -75.35 318.65 -76.06 318.46 C-80.88 317.12 -80.88 317.12 -82 316 C-81.97 314.6 -81.87 313.2 -81.74 311.81 C-81.64 310.51 -81.64 310.51 -81.54 309.19 C-81.39 307.38 -81.23 305.57 -81.05 303.76 C-80.6 297.48 -81.39 293.23 -85 288 C-86.92 285.72 -86.92 285.72 -89 283.94 C-95.08 278.17 -98.02 272.44 -98.27 264.03 C-99.74 199.31 -86.85 123.38 -61 64 C-60.59 63.07 -60.19 62.13 -59.77 61.17 C-49.72 38.42 -35.57 9.78 -11 0 C-7.05 -1.2 -4.05 -0.94 0 0 Z " fill="#F7FAF9" transform="translate(858,174)"/>
<path d="M0 0 C0.77 0.01 1.54 0.01 2.34 0.02 C3.57 0.01 3.57 0.01 4.82 0.01 C7.6 0 10.37 0.01 13.15 0.02 C15.15 0.02 17.14 0.02 19.14 0.02 C24.66 0.01 30.17 0.02 35.68 0.03 C41.62 0.04 47.56 0.04 53.5 0.03 C63.79 0.03 74.08 0.04 84.38 0.05 C95.18 0.06 105.98 0.07 116.78 0.07 C117.45 0.07 118.12 0.07 118.81 0.07 C122.22 0.07 125.62 0.07 129.03 0.07 C153.18 0.08 177.32 0.09 201.47 0.11 C224.93 0.13 248.39 0.14 271.85 0.15 C272.58 0.15 273.3 0.15 274.05 0.15 C281.3 0.16 288.56 0.16 295.82 0.16 C310.61 0.17 325.4 0.17 340.19 0.18 C341.21 0.18 341.21 0.18 342.25 0.18 C387.68 0.2 433.1 0.23 478.53 0.26 C480.06 3.33 479.63 6.53 479.59 9.89 C479.59 10.59 479.59 11.3 479.58 12.03 C479.57 13.77 479.55 15.52 479.53 17.26 C433.21 17.28 386.89 17.3 340.57 17.3 C339.55 17.3 339.55 17.3 338.5 17.3 C323.61 17.31 308.73 17.31 293.84 17.31 C286.54 17.31 279.24 17.32 271.95 17.32 C270.86 17.32 270.86 17.32 269.74 17.32 C246.18 17.32 222.61 17.33 199.05 17.34 C174.84 17.35 150.64 17.35 126.43 17.36 C123.02 17.36 119.6 17.36 116.19 17.36 C115.52 17.36 114.84 17.36 114.15 17.36 C103.31 17.36 92.47 17.36 81.63 17.37 C70.74 17.37 59.85 17.38 48.97 17.38 C43.06 17.37 37.16 17.38 31.26 17.38 C25.86 17.39 20.47 17.39 15.07 17.38 C13.11 17.38 11.15 17.38 9.19 17.39 C6.54 17.39 3.89 17.39 1.25 17.39 C0.47 17.39 -0.31 17.39 -1.11 17.39 C-6.35 17.38 -6.35 17.38 -7.47 16.26 C-7.59 13.95 -7.64 11.64 -7.66 9.32 C-7.67 8.06 -7.68 6.79 -7.7 5.48 C-7.3 -0.04 -4.98 0.03 0 0 Z " fill="#F7FAF9" transform="translate(419.46778434515,774.7379830479622)"/>
<path d="M0 0 C0.96 -0.05 1.93 -0.1 2.92 -0.15 C8.33 -0.23 11.55 0.24 15.7 3.85 C16.91 5.06 18.09 6.3 19.25 7.56 C20.36 8.65 20.36 8.65 21.5 9.75 C22.08 10.35 22.65 10.95 23.25 11.56 C25.77 14.12 28.33 16.54 31.06 18.88 C34.45 21.79 37.61 24.88 40.75 28.06 C43.8 31.16 46.87 34.18 50.19 37 C54.29 40.5 58.04 44.32 61.83 48.16 C65.15 51.51 68.58 54.65 72.18 57.71 C75.83 60.98 79.22 64.51 82.64 68.01 C85.2 70.61 85.2 70.61 88.08 72.77 C89.16 73.66 89.16 73.66 90.25 74.56 C90.25 75.22 90.25 75.88 90.25 76.56 C90.87 76.81 91.49 77.06 92.12 77.31 C94.65 78.8 94.97 80 96.25 82.56 C98.1 83.61 98.1 83.61 100.25 84.56 C103.43 86.89 106.34 89.07 108.25 92.56 C107.84 96.97 107.84 96.97 106.25 98.56 C104.72 98.67 103.18 98.7 101.64 98.71 C100.14 98.72 100.14 98.72 98.62 98.73 C97.52 98.73 96.41 98.74 95.28 98.74 C94.12 98.75 92.97 98.75 91.78 98.76 C87.94 98.78 84.1 98.79 80.26 98.8 C78.3 98.81 78.3 98.81 76.3 98.81 C70.1 98.83 63.9 98.85 57.69 98.85 C50.53 98.86 43.37 98.89 36.2 98.93 C30.67 98.96 25.13 98.98 19.6 98.98 C16.29 98.98 12.99 98.99 9.68 99.02 C5.99 99.04 2.3 99.04 -1.39 99.03 C-3.03 99.05 -3.03 99.05 -4.71 99.07 C-5.72 99.06 -6.72 99.06 -7.76 99.05 C-9.07 99.05 -9.07 99.05 -10.4 99.06 C-13.58 98.39 -14.78 97.1 -16.75 94.56 C-17.13 91.61 -17.28 89.04 -17.24 86.09 C-17.24 85.24 -17.24 84.39 -17.25 83.51 C-17.25 80.69 -17.23 77.88 -17.21 75.06 C-17.21 73.1 -17.21 71.15 -17.21 69.19 C-17.21 65.09 -17.19 60.99 -17.16 56.88 C-17.13 51.62 -17.12 46.36 -17.12 41.11 C-17.12 37.06 -17.11 33.02 -17.1 28.98 C-17.09 27.04 -17.09 25.1 -17.08 23.16 C-17.08 20.45 -17.06 17.74 -17.04 15.03 C-17.04 14.23 -17.04 13.43 -17.04 12.6 C-16.96 5.69 -16.96 5.69 -14.75 2.56 C-10.3 -0.43 -5.17 0.08 0 0 Z " fill="#F9D819" transform="translate(799.75,630.4375)"/>
<path d="M0 0 C0.76 -0 1.51 -0.01 2.29 -0.01 C3.9 -0.01 5.51 -0.01 7.12 0.01 C9.53 0.02 11.93 0.01 14.34 -0.01 C29.55 -0.03 48.67 0.72 60.33 11.71 C61.39 12.91 62.41 14.14 63.39 15.4 C63.87 15.99 64.34 16.59 64.82 17.2 C71.67 26.94 72.34 38.56 70.71 49.96 C68.88 59 63.47 65.65 56.39 71.4 C52.82 73.61 49.17 75.57 45.39 77.4 C46.05 81.89 47.75 85.74 49.67 89.82 C49.99 90.51 50.32 91.21 50.65 91.93 C51.34 93.4 52.02 94.87 52.71 96.34 C53.77 98.58 54.81 100.84 55.85 103.09 C56.52 104.52 57.19 105.95 57.86 107.38 C58.16 108.05 58.47 108.73 58.79 109.42 C60.38 112.75 61.26 114.31 64.39 116.4 C66.73 116.99 69.07 117.41 71.43 117.84 C72.4 118.11 72.4 118.11 73.39 118.4 C75 121.61 74.45 124.83 74.39 128.4 C70.77 128.43 67.14 128.45 63.52 128.46 C61.97 128.47 61.97 128.47 60.39 128.49 C59.4 128.49 58.42 128.49 57.4 128.5 C56.49 128.5 55.58 128.51 54.64 128.51 C52.39 128.4 52.39 128.4 50.39 127.4 C49.39 125.47 48.48 123.5 47.6 121.52 C47.33 120.92 47.07 120.32 46.79 119.7 C45.92 117.75 45.07 115.79 44.21 113.84 C43.62 112.5 43.03 111.17 42.43 109.84 C39.95 104.23 37.48 98.62 35.05 92.98 C34.73 92.24 34.41 91.5 34.08 90.74 C33.27 88.85 32.47 86.96 31.66 85.07 C30.54 82.32 30.54 82.32 28.39 80.4 C25.29 80.34 25.29 80.34 21.83 80.71 C20.07 80.86 20.07 80.86 18.27 81.01 C15.5 81.09 15.5 81.09 14.39 82.4 C14.31 84.77 14.28 87.12 14.3 89.5 C14.3 90.56 14.3 90.56 14.3 91.64 C14.31 93.92 14.32 96.19 14.33 98.46 C14.34 100 14.34 101.54 14.35 103.07 C14.36 106.85 14.37 110.62 14.39 114.4 C15 114.59 15.6 114.79 16.22 114.98 C17.02 115.24 17.82 115.51 18.64 115.77 C19.83 116.16 19.83 116.16 21.04 116.55 C23.39 117.4 23.39 117.4 27.39 119.4 C27.39 122.37 27.39 125.34 27.39 128.4 C15.51 128.4 3.63 128.4 -8.61 128.4 C-10.61 121.4 -10.61 121.4 -9.61 118.4 C-6 116.88 -3.55 116.4 0.39 116.4 C0.29 103.12 0.17 89.83 0.06 76.55 C-0 70.39 -0.05 64.22 -0.1 58.05 C-0.15 52.11 -0.2 46.16 -0.26 40.22 C-0.28 37.94 -0.3 35.67 -0.31 33.39 C-0.34 30.22 -0.37 27.05 -0.4 23.88 C-0.41 22.93 -0.41 21.97 -0.42 21 C-0.05 16.87 -0.05 16.87 -1.61 13.4 C-2.93 13.19 -4.27 13.03 -5.61 12.9 C-9.49 12.51 -9.49 12.51 -10.61 11.4 C-11.08 4.12 -11.08 4.12 -9.56 1.8 C-6.58 -0.33 -3.53 -0.03 0 0 Z " fill="#F7FAF9" transform="translate(721.60546875,944.6015625)"/>
<path d="M0 0 C1.83 2.01 3.5 4.07 5.13 6.24 C5.82 7.15 5.82 7.15 6.54 8.08 C17.26 23.55 17.17 46.6 13.94 64.49 C11.49 74.87 6.87 84.65 -2.18 90.81 C-11.3 96.05 -21.52 96.7 -31.79 94.66 C-40.92 91.47 -47.88 84.79 -52.31 76.3 C-55.97 68.15 -58.39 60.18 -58.87 51.24 C-58.92 50.36 -58.98 49.48 -59.03 48.57 C-59.54 32.03 -55.36 13.68 -43.87 1.24 C-31.12 -8.38 -12.7 -11.93 0 0 Z " fill="#000100" transform="translate(454.87109375,965.7578125)"/>
<path d="M0 0 C10.56 6.12 16.11 16.52 19.47 27.92 C23.64 45.63 23.87 67.23 14.5 83.38 C13.53 84.81 12.53 86.23 11.5 87.62 C10.86 88.55 10.22 89.48 9.56 90.44 C3.85 96.49 -1.93 99.22 -10.33 99.96 C-22.72 100.08 -31.02 98.16 -40.17 89.36 C-51.74 75.75 -53.75 57.82 -52.5 40.62 C-51.1 27.63 -45.59 14.18 -36.5 4.62 C-25.34 -3.28 -12.8 -5.63 0 0 Z " fill="#000100" transform="translate(341.5,961.375)"/>
<path d="M0 0 C1.36 0.06 2.72 0.15 4.07 0.24 C4.79 0.29 5.51 0.34 6.24 0.39 C19.64 1.54 30.89 6.3 40.14 16.17 C50.75 28.9 53.22 45.01 51.76 61.12 C49.94 76.41 44.76 86.35 33.01 96.49 C21.09 102.45 8.94 103.39 -4.24 102.12 C-6.17 100.19 -5.37 97.3 -5.38 94.73 C-5.38 93.81 -5.38 92.89 -5.38 91.95 C-5.39 90.98 -5.39 90.02 -5.39 89.03 C-5.4 85.83 -5.41 82.63 -5.41 79.43 C-5.41 77.22 -5.41 75.01 -5.42 72.79 C-5.42 68.15 -5.42 63.5 -5.42 58.85 C-5.42 52.89 -5.44 46.92 -5.45 40.95 C-5.47 36.38 -5.47 31.81 -5.47 27.23 C-5.47 25.03 -5.47 22.83 -5.48 20.63 C-5.49 17.56 -5.49 14.49 -5.48 11.42 C-5.49 10.5 -5.49 9.58 -5.5 8.64 C-5.46 0.2 -5.46 0.2 0 0 Z " fill="#000100" transform="translate(518.23828125,957.8828125)"/>
<path d="M0 0 C1.93 0 1.93 0 3.91 0 C4.58 0.01 5.25 0.02 5.94 0.03 C7.99 0.05 10.04 0.05 12.1 0.04 C22.17 0.1 22.17 0.1 24.43 2.36 C24.63 4.53 24.63 4.53 24.56 6.99 C24.54 7.81 24.52 8.62 24.5 9.46 C24.48 10.09 24.46 10.72 24.43 11.36 C17.68 13.36 17.68 13.36 15.43 13.36 C15.43 32.83 15.43 52.3 15.43 72.36 C16.09 72.36 16.75 72.36 17.43 72.36 C19.16 70.34 20.77 68.3 22.37 66.18 C26.12 61.3 29.93 56.52 33.93 51.86 C38.2 46.89 42.27 41.79 46.29 36.62 C50.01 31.85 53.88 27.21 57.82 22.62 C60.12 19.94 62.35 17.23 64.43 14.36 C61.94 11.87 60.82 12.03 57.37 11.8 C52.53 11.46 52.53 11.46 51.43 10.36 C51.16 4.63 51.16 4.63 51.43 2.36 C53.87 -0.08 55.18 0.13 58.51 0.11 C59.54 0.12 59.54 0.12 60.59 0.13 C61.3 0.13 62 0.13 62.73 0.13 C64.22 0.14 65.71 0.15 67.2 0.16 C69.49 0.18 71.78 0.18 74.07 0.18 C75.51 0.18 76.96 0.19 78.41 0.2 C79.44 0.2 79.44 0.2 80.49 0.2 C85.32 0.25 85.32 0.25 86.43 1.36 C86.51 3.22 86.52 5.07 86.5 6.93 C86.49 7.94 86.48 8.95 86.47 9.99 C86.46 10.77 86.45 11.56 86.43 12.36 C84.86 12.92 84.86 12.92 83.25 13.48 C79.17 15.24 76.91 17.93 74.37 21.49 C73.43 22.75 72.48 24.01 71.53 25.27 C71.03 25.93 70.54 26.6 70.02 27.29 C67.23 30.94 64.26 34.45 61.31 37.99 C59.56 40.12 57.81 42.25 56.07 44.38 C55.02 45.65 53.96 46.92 52.9 48.19 C51.56 49.79 50.24 51.42 48.93 53.05 C47.84 54.39 47.84 54.39 46.71 55.75 C45.16 58.29 45.16 58.29 45.85 61.04 C48.12 65.8 50.67 70.36 53.31 74.93 C54.17 76.43 54.17 76.43 55.04 77.96 C56.24 80.05 57.44 82.14 58.63 84.23 C60.38 87.27 62.12 90.32 63.86 93.37 C65.89 96.94 67.93 100.52 69.97 104.09 C70.4 104.84 70.83 105.59 71.27 106.36 C72.24 108.03 73.25 109.68 74.27 111.32 C75.43 113.36 75.43 113.36 75.43 115.36 C76.22 115.5 77 115.63 77.8 115.77 C78.82 115.94 79.83 116.12 80.87 116.3 C81.88 116.47 82.89 116.65 83.93 116.83 C86.43 117.36 86.43 117.36 87.43 118.36 C87.51 120.05 87.52 121.74 87.5 123.43 C87.49 124.34 87.48 125.26 87.47 126.21 C87.46 126.92 87.45 127.63 87.43 128.36 C84.35 128.48 81.27 128.55 78.18 128.61 C77.31 128.65 76.44 128.68 75.54 128.71 C74.69 128.73 73.85 128.74 72.98 128.75 C72.21 128.77 71.43 128.8 70.63 128.82 C67.52 128.18 66.43 126.79 64.43 124.36 C62.9 121.89 62.9 121.89 61.44 119.09 C60.88 118.05 60.33 117.01 59.76 115.93 C59.18 114.82 58.6 113.7 58 112.55 C56.75 110.21 55.51 107.87 54.27 105.53 C53.79 104.64 53.79 104.64 53.31 103.73 C50.03 97.57 46.62 91.49 43.18 85.43 C42.64 84.46 42.09 83.49 41.52 82.49 C39.57 79.05 37.63 75.66 35.43 72.36 C31.33 73.73 29.65 76.6 27.12 79.93 C26.43 80.82 26.43 80.82 25.72 81.73 C24.78 82.96 23.84 84.2 22.91 85.45 C21.43 87.36 21.43 87.36 19.75 89.24 C15.1 94.68 14.66 98.85 15.06 105.86 C15.09 106.78 15.11 107.7 15.14 108.64 C15.21 110.89 15.31 113.12 15.43 115.36 C16.07 115.5 16.71 115.63 17.37 115.77 C18.61 116.03 18.61 116.03 19.87 116.3 C20.69 116.47 21.52 116.65 22.37 116.83 C24.43 117.36 24.43 117.36 25.43 118.36 C25.51 120.05 25.52 121.74 25.5 123.43 C25.49 124.34 25.48 125.26 25.47 126.21 C25.46 126.92 25.45 127.63 25.43 128.36 C20.91 128.44 16.39 128.49 11.87 128.53 C10.33 128.54 8.79 128.56 7.26 128.59 C5.05 128.63 2.84 128.64 0.63 128.66 C-0.41 128.68 -0.41 128.68 -1.46 128.7 C-3.4 128.7 -3.4 128.7 -6.57 128.36 C-8.87 124.91 -8.91 123.42 -8.57 119.36 C-5.8 116.6 -3.36 116.78 0.43 116.36 C0.46 103.08 0.47 89.8 0.49 76.52 C0.49 70.35 0.5 64.18 0.51 58.02 C0.52 52.07 0.53 46.13 0.53 40.18 C0.53 37.91 0.53 35.63 0.54 33.36 C0.55 30.19 0.55 27.01 0.55 23.84 C0.55 22.89 0.55 21.94 0.56 20.96 C0.98 16.84 0.98 16.84 -0.57 13.36 C-2.08 12.97 -3.6 12.62 -5.13 12.3 C-5.96 12.12 -6.78 11.95 -7.63 11.77 C-8.27 11.63 -8.91 11.5 -9.57 11.36 C-9.93 3.9 -9.93 3.9 -8.46 1.76 C-5.67 -0.3 -3.44 -0.01 0 0 Z " fill="#F7FAF9" transform="translate(1003.56640625,944.63671875)"/>
<path d="M0 0 C15.52 -0.74 32.04 6.34 43.8 16.25 C53.65 26.15 59.05 37.68 61.75 51.21 C22.15 51.54 -17.45 51.87 -58.25 52.21 C-60.02 45.1 -55.99 38.34 -52.53 32.12 C-50.84 29.43 -49.09 26.81 -47.25 24.21 C-46.16 22.66 -46.16 22.66 -45.06 21.09 C-33.47 8.11 -16.93 1.59 0 0 Z " fill="#000100" transform="translate(821.24609375,837.7890625)"/>
<path d="M0 0 C0.88 0.07 1.75 0.14 2.65 0.21 C18.7 2.15 32.7 10.27 43.09 22.5 C48.98 30.21 52.7 38.04 55.27 47.38 C55.9 49.95 55.9 49.95 57 52 C17.07 51.67 -22.86 51.34 -64 51 C-65.85 43.61 -60.87 36.29 -57.25 29.88 C-47.67 14.68 -33.3 5.21 -15.88 1.19 C-10.47 0.15 -5.48 -0.51 0 0 Z " fill="#000100" transform="translate(502,838)"/>
<path d="M0 0 C0.98 -0 0.98 -0 1.98 -0.01 C3.36 -0.01 4.75 -0 6.14 0 C8.22 0.02 10.29 0.01 12.36 -0.01 C32.69 -0.03 52.63 3.26 68.2 17.39 C80.33 30.39 84.71 45.48 84.76 62.75 C84.77 64.73 84.8 66.72 84.83 68.7 C84.9 86.41 80.55 100.97 68.07 113.86 C56.16 125.07 40.86 128.46 24.86 128.36 C23.96 128.36 23.06 128.36 22.14 128.36 C19.28 128.35 16.43 128.34 13.58 128.33 C11.63 128.32 9.69 128.32 7.75 128.31 C3 128.3 -1.74 128.29 -6.48 128.27 C-8.21 125.05 -8.87 122.95 -8.48 119.27 C-6.48 117.27 -6.48 117.27 1.52 116.27 C1.19 81.95 0.86 47.63 0.52 12.27 C-2.12 12.27 -4.76 12.27 -7.48 12.27 C-9.07 10.68 -8.65 9.02 -8.67 6.83 C-8.69 6.03 -8.7 5.22 -8.71 4.39 C-8.16 -0.76 -4.21 0.01 0 0 Z M14.52 15.27 C14.32 18.39 14.25 21.43 14.27 24.56 C14.27 25.53 14.27 26.49 14.27 27.49 C14.26 30.69 14.27 33.88 14.29 37.08 C14.29 39.3 14.29 41.51 14.29 43.73 C14.29 48.37 14.3 53.01 14.31 57.66 C14.33 63.63 14.33 69.6 14.33 75.56 C14.33 80.14 14.34 84.71 14.34 89.28 C14.35 91.48 14.35 93.69 14.35 95.89 C14.35 98.96 14.36 102.03 14.37 105.1 C14.37 106.01 14.37 106.93 14.37 107.88 C13.98 111.89 13.98 111.89 15.52 115.27 C28.69 116.54 42.68 116.3 53.89 108.52 C65.69 98.6 70.33 87.35 71.7 72.18 C72.78 55.48 69.36 41.21 58.71 28.03 C49.54 17.91 37.29 14.51 24.14 13.52 C23.43 13.46 22.71 13.4 21.97 13.34 C17.79 12.92 17.79 12.92 14.52 15.27 Z " fill="#F7FAF9" transform="translate(498.484375,944.734375)"/>
<path d="M0 0 C14.11 11.42 20.64 28.86 22.54 46.44 C24.33 65.51 21.81 87.72 9.52 103.11 C1.29 112.63 -7.04 119.06 -19.96 120.17 C-36.25 121.07 -48.79 118.08 -61.29 106.97 C-75.51 92.27 -78.63 72.86 -78.47 53.28 C-78 35.23 -72.29 17.28 -59.42 4.12 C-42.44 -10.75 -18.67 -14.08 0 0 Z M-53 16.12 C-64.47 33.24 -67.56 53.19 -63.94 73.25 C-61.09 84.77 -55.9 95.89 -45.7 102.49 C-36.68 107.73 -26.7 108.39 -16.45 106.54 C-6.62 103.2 -0.53 96.05 4 87 C10.86 68.96 12.1 46.31 4.49 28.25 C-0.06 18.24 -5.29 10.06 -15.79 5.86 C-29.35 2.23 -43.62 5.02 -53 16.12 Z " fill="#F7FAF9" transform="translate(354,954)"/>
<path d="M0 0 C0.79 0.58 1.57 1.15 2.38 1.75 C15.09 12.69 21.63 31.03 22.88 47.32 C23.87 68.63 21.23 89.38 7.12 106.24 C-1.09 115.02 -10.01 119.56 -21.92 120.21 C-38.31 120.72 -49.69 116.91 -62.13 106.16 C-75.47 92.52 -78.65 71.39 -78.47 53.22 C-77.93 35.11 -72 17.03 -59.09 3.79 C-42.33 -10.56 -18.16 -13.83 0 0 Z M-49.69 13.25 C-61.7 27.53 -66.12 44.51 -65 63 C-63.7 77.94 -59.11 91.31 -47.46 101.16 C-38.75 107.65 -29.46 107.89 -19 107 C-10.74 105.45 -4.22 99.97 0.75 93.44 C11.04 77.88 11.03 55.58 7.81 37.75 C5.06 26.08 -1 14.99 -11 8 C-14.22 6.68 -14.22 6.68 -17.62 5.75 C-18.75 5.41 -19.88 5.08 -21.04 4.73 C-31.38 2.17 -41.84 6.68 -49.69 13.25 Z " fill="#F7FAF9" transform="translate(461,954)"/>
<path d="M0 0 C1.25 0.01 2.49 0.02 3.78 0.03 C4.77 0.04 4.77 0.04 5.79 0.04 C7.91 0.05 10.02 0.08 12.14 0.1 C13.58 0.11 15.02 0.12 16.45 0.13 C19.97 0.15 23.5 0.19 27.02 0.23 C28.22 2.63 28.12 4.18 28.08 6.85 C28.07 7.67 28.06 8.49 28.05 9.33 C28.04 9.96 28.03 10.58 28.02 11.23 C21.27 13.23 21.27 13.23 19.02 13.23 C18.95 23.62 18.9 34 18.86 44.39 C18.85 49.22 18.83 54.04 18.79 58.87 C18.76 63.53 18.74 68.19 18.73 72.85 C18.73 74.62 18.72 76.4 18.7 78.17 C18.49 93.15 18.49 93.15 23.64 107.04 C32.9 115.56 42.87 115.88 54.8 115.4 C61.08 114.91 65.2 112.39 69.46 107.91 C74.08 102.48 74.31 95.65 74.26 88.83 C74.26 87.62 74.26 87.62 74.27 86.38 C74.27 83.73 74.26 81.07 74.25 78.42 C74.25 76.57 74.25 74.73 74.25 72.88 C74.25 69.02 74.24 65.15 74.22 61.29 C74.21 56.33 74.2 51.37 74.2 46.41 C74.2 42.6 74.2 38.79 74.19 34.98 C74.19 33.15 74.19 31.32 74.19 29.49 C74.18 26.94 74.18 24.4 74.16 21.85 C74.16 20.71 74.16 20.71 74.17 19.54 C74.45 16.09 74.45 16.09 73.02 13.23 C71.69 13.02 70.36 12.86 69.02 12.73 C65.13 12.34 65.13 12.34 64.02 11.23 C63.55 3.91 63.55 3.91 65.14 1.62 C67.9 -0.42 70.04 -0.11 73.44 -0.07 C74.69 -0.06 75.94 -0.05 77.24 -0.04 C78.55 -0.01 79.86 0.01 81.21 0.04 C82.54 0.05 83.88 0.07 85.21 0.08 C88.48 0.12 91.75 0.17 95.02 0.23 C96.38 4.08 97.26 7.12 97.02 11.23 C90.27 13.23 90.27 13.23 88.02 13.23 C88.01 14.81 88.01 14.81 88 16.42 C87.94 26.38 87.87 36.34 87.78 46.3 C87.74 51.42 87.7 56.53 87.67 61.65 C87.65 66.6 87.61 71.55 87.56 76.5 C87.54 78.38 87.53 80.26 87.52 82.14 C87.43 107.79 87.43 107.79 79.64 115.66 C78.52 116.84 78.52 116.84 77.37 118.04 C66.83 127.86 56.19 129.82 42.18 129.47 C30.74 128.95 20.49 124.32 12.58 115.91 C6.39 107.99 4.89 98.63 4.81 88.86 C4.8 88.03 4.79 87.2 4.78 86.34 C4.75 83.61 4.73 80.88 4.7 78.15 C4.68 76.25 4.66 74.35 4.64 72.45 C4.58 67.46 4.54 62.47 4.49 57.48 C4.44 52.39 4.38 47.29 4.33 42.2 C4.22 32.21 4.12 22.22 4.02 12.23 C2.72 12.25 1.42 12.27 0.08 12.29 C-1.27 12.31 -2.63 12.3 -3.98 12.23 C-5.57 10.64 -5.15 8.98 -5.17 6.79 C-5.18 5.99 -5.2 5.18 -5.21 4.36 C-4.82 0.74 -3.47 0.26 0 0 Z " fill="#F7FAF9" transform="translate(801.98095703125,944.77294921875)"/>
<path d="M0 0 C0.81 -0 1.62 -0 2.45 -0 C5.13 0 7.81 0.02 10.49 0.05 C12.35 0.05 14.2 0.06 16.06 0.06 C20.95 0.07 25.83 0.1 30.72 0.13 C35.71 0.17 40.7 0.18 45.68 0.19 C55.47 0.23 65.25 0.28 75.04 0.34 C76.21 4.96 77.3 9.42 77.89 14.15 C78.02 15.16 78.15 16.18 78.28 17.22 C78.41 18.25 78.54 19.28 78.67 20.34 C78.87 21.93 78.87 21.93 79.07 23.56 C79.4 26.15 79.72 28.74 80.04 31.34 C72.65 31.7 72.65 31.7 70.2 30.25 C68.55 27.53 67.5 24.72 66.42 21.72 C65.23 17.74 65.23 17.74 63.04 14.34 C61.42 14.24 59.79 14.21 58.17 14.21 C57.18 14.21 56.2 14.21 55.18 14.2 C53.63 14.21 53.63 14.21 52.04 14.22 C51 14.21 49.97 14.21 48.9 14.2 C47.91 14.21 46.93 14.21 45.92 14.21 C44.55 14.21 44.55 14.21 43.16 14.21 C41.05 14.1 41.05 14.1 40.04 15.34 C39.94 18.42 39.91 21.47 39.93 24.54 C39.93 25.51 39.93 26.47 39.93 27.47 C39.93 30.68 39.93 33.89 39.94 37.09 C39.94 39.31 39.95 41.53 39.95 43.75 C39.95 49.6 39.96 55.45 39.97 61.3 C39.98 67.27 39.99 73.23 39.99 79.2 C40 90.91 40.02 102.63 40.04 114.34 C41.48 114.66 42.91 114.98 44.35 115.3 C45.55 115.57 45.55 115.57 46.78 115.84 C50.19 116.59 53.63 117.23 57.07 117.88 C59.04 118.34 59.04 118.34 60.04 119.34 C60.11 120.86 60.12 122.38 60.1 123.9 C60.09 124.73 60.08 125.56 60.08 126.41 C60.06 127.05 60.05 127.68 60.04 128.34 C52.37 128.37 44.7 128.38 37.02 128.4 C34.41 128.4 31.8 128.41 29.19 128.42 C25.44 128.43 21.7 128.43 17.95 128.44 C16.77 128.44 15.6 128.45 14.39 128.45 C13.31 128.45 12.22 128.45 11.11 128.45 C10.15 128.46 9.2 128.46 8.21 128.46 C6.04 128.34 6.04 128.34 5.04 127.34 C4.85 123.9 4.85 123.9 5.04 120.34 C9.9 115.48 18.26 116.47 25.04 115.34 C25.04 82.01 25.04 48.68 25.04 14.34 C17.78 14.34 10.52 14.34 3.04 14.34 C-0.2 20.8 -0.2 20.8 -3.21 27.34 C-3.79 28.66 -4.36 29.98 -4.96 31.34 C-7.93 31.34 -10.9 31.34 -13.96 31.34 C-14.11 25.11 -13.56 19.19 -12.65 13.03 C-12.53 12.14 -12.41 11.24 -12.29 10.32 C-12.16 9.47 -12.04 8.61 -11.91 7.73 C-11.8 6.96 -11.69 6.18 -11.58 5.39 C-9.8 -0.52 -5.4 -0.08 0 0 Z " fill="#F7FAF9" transform="translate(629.959716796875,944.659423828125)"/>
<path d="M0 0 C1.02 -0.01 1.02 -0.01 2.06 -0.01 C4.31 -0.02 6.55 -0.01 8.8 0.01 C10.36 0.01 11.92 0.01 13.48 0.01 C16.75 0.01 20.02 0.02 23.29 0.04 C27.48 0.06 31.68 0.06 35.88 0.05 C39.1 0.05 42.32 0.06 45.54 0.07 C47.09 0.07 48.63 0.07 50.18 0.07 C52.34 0.07 54.5 0.08 56.66 0.1 C57.89 0.1 59.12 0.11 60.39 0.11 C63.27 0.37 63.27 0.37 65.27 2.37 C65.77 4.69 65.77 4.69 66.12 7.57 C66.25 8.62 66.37 9.66 66.51 10.74 C66.63 11.83 66.76 12.93 66.89 14.06 C67.09 15.68 67.09 15.68 67.3 17.32 C67.94 22.71 68.44 27.95 68.27 33.37 C64.38 33.69 61.63 33.39 58.27 31.37 C55.15 26.2 53.86 20.14 52.27 14.37 C47.16 14.35 42.05 14.33 36.94 14.32 C35.2 14.31 33.46 14.31 31.72 14.3 C29.23 14.28 26.73 14.28 24.24 14.27 C23.06 14.27 23.06 14.27 21.87 14.26 C20 14.26 18.13 14.31 16.27 14.37 C14.8 15.6 14.8 15.6 15.15 19.34 C15.15 21.11 15.16 22.89 15.17 24.66 C15.17 26.05 15.17 26.05 15.17 27.48 C15.18 30.46 15.19 33.45 15.2 36.43 C15.21 38.45 15.21 40.47 15.22 42.49 C15.23 47.45 15.24 52.41 15.27 57.37 C16.53 57.41 16.53 57.41 17.82 57.45 C20.94 57.54 24.06 57.64 27.17 57.74 C28.52 57.79 29.88 57.83 31.23 57.87 C33.17 57.93 35.1 57.99 37.04 58.06 C38.21 58.09 39.38 58.13 40.58 58.17 C43.27 58.37 43.27 58.37 44.27 59.37 C44.27 63 44.27 66.63 44.27 70.37 C34.7 70.7 25.13 71.03 15.27 71.37 C14.94 85.56 14.61 99.75 14.27 114.37 C23.11 115.65 23.11 115.65 31.95 116.92 C33.04 117.07 34.13 117.23 35.26 117.4 C36.95 117.64 36.95 117.64 38.67 117.89 C41.27 118.37 41.27 118.37 42.27 119.37 C42.34 120.89 42.35 122.41 42.33 123.93 C42.32 124.76 42.31 125.59 42.3 126.44 C42.29 127.08 42.28 127.71 42.27 128.37 C35.32 128.4 28.38 128.42 21.44 128.43 C19.08 128.43 16.71 128.44 14.35 128.45 C10.96 128.46 7.57 128.47 4.18 128.47 C3.12 128.48 2.06 128.48 0.96 128.49 C-0.02 128.49 -1 128.49 -2.01 128.49 C-2.88 128.49 -3.74 128.49 -4.63 128.49 C-6.73 128.37 -6.73 128.37 -8.73 127.37 C-8.73 124.4 -8.73 121.43 -8.73 118.37 C-5.11 117.06 -2.64 116.37 1.27 116.37 C0.94 82.05 0.61 47.73 0.27 12.37 C-2.37 12.37 -5.01 12.37 -7.73 12.37 C-8.39 12.04 -9.05 11.71 -9.73 11.37 C-10.1 3.91 -10.1 3.91 -8.64 1.77 C-5.8 -0.32 -3.49 -0 0 0 Z " fill="#F7FAF9" transform="translate(206.734619140625,944.627685546875)"/>
<path d="M0 0 C2.46 2.46 2.42 3.61 2.85 7.02 C2.98 8.02 3.11 9.02 3.24 10.06 C3.37 11.11 3.49 12.16 3.62 13.25 C3.83 14.81 3.83 14.81 4.03 16.39 C4.64 21.29 5.19 26.06 5 31 C3.37 30.89 1.75 30.76 0.12 30.62 C-0.78 30.56 -1.68 30.49 -2.62 30.41 C-5 30 -5 30 -7 28 C-7.78 25.46 -8.48 22.95 -9.12 20.38 C-9.31 19.67 -9.49 18.96 -9.68 18.23 C-10.12 16.49 -10.56 14.75 -11 13 C-24.93 10.21 -37.3 14.7 -49 22 C-58.61 28.68 -64.55 41.83 -67 53 C-67.42 56.41 -67.53 59.75 -67.5 63.19 C-67.49 64.55 -67.49 64.55 -67.48 65.94 C-67.13 79.67 -62.43 92.09 -52.38 101.69 C-42.75 109.62 -31.52 113.39 -19.19 113.38 C-18.4 113.38 -17.62 113.38 -16.81 113.38 C-11.05 113.29 -6.39 112.22 -1.16 109.68 C1 109 1 109 3.18 109.59 C5.51 111.4 5.95 112.81 6.75 115.62 C7.11 116.85 7.11 116.85 7.48 118.1 C7.65 118.73 7.82 119.35 8 120 C-0.96 128.18 -15.38 127.51 -26.71 127.14 C-43.05 126.16 -57.51 118.34 -68.43 106.33 C-80.15 91.03 -84.19 71.79 -81.72 52.88 C-78.73 35.02 -69.13 19.32 -54.49 8.59 C-37.89 -2.04 -19.05 -4.1 0 0 Z " fill="#F7FAF9" transform="translate(983,947)"/>
<path d="M0 0 C1.13 0 1.13 0 2.28 0 C4.68 0.01 7.09 0.02 9.49 0.04 C11.12 0.04 12.75 0.04 14.38 0.05 C18.38 0.06 22.37 0.08 26.37 0.1 C28.26 3.61 28.73 6.35 28.99 10.35 C29.07 11.43 29.14 12.5 29.22 13.61 C29.27 14.43 29.32 15.25 29.37 16.1 C26.98 15.78 26.98 15.78 24.37 15.1 C21.37 10.24 21.37 10.24 21.37 7.1 C18.39 7.24 15.41 7.38 12.43 7.54 C11.15 7.59 11.15 7.59 9.85 7.65 C8.64 7.72 8.64 7.72 7.4 7.78 C6.65 7.82 5.9 7.85 5.13 7.89 C3.34 7.92 3.34 7.92 2.37 9.1 C2.28 10.59 2.26 12.08 2.27 13.57 C2.27 14.47 2.28 15.37 2.28 16.29 C2.29 17.24 2.3 18.19 2.3 19.16 C2.31 20.11 2.31 21.06 2.32 22.04 C2.33 24.39 2.35 26.74 2.37 29.1 C3.87 29.19 3.87 29.19 5.39 29.28 C6.68 29.37 7.98 29.45 9.3 29.54 C11.24 29.66 11.24 29.66 13.21 29.78 C16.37 30.1 16.37 30.1 17.37 31.1 C17.37 32.75 17.37 34.4 17.37 36.1 C12.42 36.43 7.47 36.76 2.37 37.1 C2.37 44.03 2.37 50.96 2.37 58.1 C9.3 58.43 16.23 58.76 23.37 59.1 C24.36 56.13 25.35 53.16 26.37 50.1 C27.36 49.77 28.35 49.44 29.37 49.1 C30.03 53.1 30.7 57.1 31.37 61.1 C34.93 58.72 35.05 57.78 36.22 53.78 C36.55 52.67 36.88 51.55 37.22 50.41 C37.57 49.2 37.92 48 38.27 46.76 C38.83 44.87 39.39 42.99 39.95 41.11 C40.93 37.79 41.9 34.48 42.87 31.16 C44.02 27.21 45.18 23.26 46.35 19.31 C47.08 16.85 47.8 14.39 48.51 11.92 C48.84 10.81 49.17 9.7 49.51 8.55 C49.8 7.56 50.09 6.58 50.38 5.57 C51.39 3.03 52.2 1.73 54.37 0.1 C57.05 -0.09 57.05 -0.09 59.37 0.1 C62.54 5.74 64.2 11.73 66.02 17.92 C66.72 20.25 67.42 22.58 68.12 24.91 C69.22 28.58 70.31 32.24 71.39 35.91 C72.45 39.46 73.51 43 74.58 46.54 C75.06 48.19 75.06 48.19 75.55 49.87 C75.86 50.89 76.17 51.91 76.49 52.97 C76.76 53.86 77.02 54.76 77.3 55.68 C78.25 58.24 78.25 58.24 80.48 60.17 C82.37 62.1 82.37 62.1 82.37 66.1 C79.58 66.15 76.78 66.19 73.99 66.22 C73.2 66.24 72.4 66.26 71.59 66.27 C69.51 66.29 67.44 66.2 65.37 66.1 C64.71 65.44 64.05 64.78 63.37 64.1 C65.79 61.16 67.68 60.72 71.37 60.1 C70.56 57.62 69.75 55.14 68.93 52.66 C68.7 51.95 68.47 51.25 68.23 50.52 C67.29 47.03 67.29 47.03 65.37 44.1 C63.88 44.01 62.39 43.99 60.89 44 C59.55 44 59.55 44 58.17 44.01 C57.22 44.02 56.28 44.03 55.3 44.04 C54.36 44.04 53.41 44.04 52.43 44.05 C50.07 44.06 47.72 44.08 45.37 44.1 C44.38 49.05 43.39 54 42.37 59.1 C44.35 60.09 46.33 61.08 48.37 62.1 C48.37 63.42 48.37 64.74 48.37 66.1 C45.6 66.15 42.83 66.19 40.05 66.22 C39.27 66.24 38.48 66.26 37.67 66.27 C36.92 66.28 36.16 66.29 35.38 66.29 C34.68 66.3 33.99 66.31 33.27 66.32 C31.37 66.1 31.37 66.1 28.37 64.1 C28.37 64.76 28.37 65.42 28.37 66.1 C16.16 66.1 3.95 66.1 -8.63 66.1 C-8.96 64.78 -9.29 63.46 -9.63 62.1 C-8.97 61.44 -8.31 60.78 -7.63 60.1 C-6.64 60.1 -5.65 60.1 -4.63 60.1 C-4.96 42.61 -5.29 25.12 -5.63 7.1 C-8.11 6.11 -8.11 6.11 -10.63 5.1 C-10.26 3.16 -10.26 3.16 -9.63 1.1 C-6.57 -0.44 -3.36 -0.02 0 0 Z " fill="#000100" transform="translate(552.6328125,1121.90234375)"/>
<path d="M0 0 C23.79 0.13 23.79 0.13 32.35 7.8 C38.85 14.77 40.19 21.69 39.91 31.08 C39.33 37.81 37.97 42.4 33.01 47.14 C22.76 55.25 9.09 54.8 -3.36 54.27 C-5 52.63 -4.5 50.76 -4.51 48.5 C-4.51 47.49 -4.52 46.47 -4.53 45.43 C-4.53 44.32 -4.53 43.22 -4.53 42.08 C-4.54 40.39 -4.54 40.39 -4.54 38.67 C-4.55 36.28 -4.55 33.9 -4.55 31.51 C-4.55 27.85 -4.57 24.18 -4.59 20.52 C-4.59 18.21 -4.59 15.9 -4.59 13.58 C-4.6 12.48 -4.61 11.38 -4.62 10.24 C-4.61 9.22 -4.61 8.21 -4.61 7.16 C-4.61 6.26 -4.61 5.36 -4.61 4.44 C-4.24 1.22 -3.18 0.36 0 0 Z " fill="#000100" transform="translate(739.36328125,957.734375)"/>
<path d="M0 0 C0.76 0 1.51 0 2.29 0.01 C3.07 0.01 3.84 0 4.64 0 C6.28 0 7.91 0 9.55 0.01 C12.07 0.01 14.58 0.01 17.1 0 C18.68 0 20.27 0 21.86 0.01 C22.99 0 22.99 0 24.15 0 C29.46 0.02 29.46 0.02 30.58 1.14 C31.51 6.21 31.67 11.01 31.58 16.14 C29.26 16.08 29.26 16.08 26.58 15.14 C25.5 12.84 24.49 10.51 23.58 8.14 C20.76 8.11 17.95 8.09 15.14 8.08 C14.34 8.07 13.53 8.06 12.71 8.05 C10.66 8.04 8.62 8.09 6.58 8.14 C5.36 9.13 5.36 9.13 5.46 11.09 C5.47 11.92 5.47 12.75 5.48 13.61 C5.48 14.51 5.48 15.41 5.49 16.34 C5.5 17.28 5.5 18.23 5.51 19.2 C5.52 20.15 5.52 21.1 5.53 22.08 C5.54 24.43 5.56 26.79 5.58 29.14 C6.97 29.23 6.97 29.23 8.38 29.32 C9.58 29.41 10.78 29.49 12.01 29.58 C13.21 29.66 14.4 29.74 15.63 29.82 C18.58 30.14 18.58 30.14 19.58 31.14 C19.62 32.81 19.62 34.47 19.58 36.14 C18.65 36.2 17.72 36.26 16.77 36.32 C15.57 36.41 14.37 36.49 13.14 36.58 C11.94 36.66 10.75 36.74 9.52 36.82 C6.69 36.82 6.69 36.82 5.58 38.14 C5.49 39.63 5.47 41.12 5.48 42.61 C5.48 43.42 5.48 44.23 5.49 45.06 C5.5 46.1 5.5 47.14 5.51 48.2 C5.53 51.48 5.55 54.76 5.58 58.14 C12.51 58.47 19.44 58.8 26.58 59.14 C26.91 57.16 27.24 55.18 27.58 53.14 C29.64 50.76 29.64 50.76 31.58 49.14 C32.58 50.14 32.58 50.14 32.71 52.21 C32.71 53.08 32.7 53.94 32.7 54.83 C32.7 56.1 32.7 56.1 32.71 57.4 C32.58 60.14 32.58 60.14 31.58 66.14 C19.37 66.14 7.16 66.14 -5.42 66.14 C-6.08 64.82 -6.74 63.5 -7.42 62.14 C-6.76 61.48 -6.1 60.82 -5.42 60.14 C-4.43 60.14 -3.44 60.14 -2.42 60.14 C-2.75 42.65 -3.08 25.16 -3.42 7.14 C-4.74 6.48 -6.06 5.82 -7.42 5.14 C-6.25 -0.07 -5.38 0.02 0 0 Z " fill="#000100" transform="translate(749.4239501953125,1121.8610534667969)"/>
<path d="M0 0 C0.29 3.04 0.29 3.04 0.19 6.62 C0.15 8.41 0.15 8.41 0.11 10.23 C0.07 11.14 0.04 12.06 0 13 C-1.98 12.67 -3.96 12.34 -6 12 C-6.66 9.36 -7.32 6.72 -8 4 C-20.41 5.03 -20.41 5.03 -31 11 C-37.53 19.66 -38.98 27.26 -38 38 C-36.04 45.18 -32.38 49.15 -26.09 52.94 C-21.75 55.14 -17.57 55.31 -12.81 55.56 C-11.69 55.63 -11.69 55.63 -10.54 55.69 C-8.69 55.8 -6.85 55.9 -5 56 C-5.5 48.58 -5.5 48.58 -6 41 C-8.2 40.57 -8.2 40.57 -10.44 40.12 C-12.93 39.63 -12.93 39.63 -15 39 C-15.33 38.34 -15.66 37.68 -16 37 C-14.91 35.02 -14.91 35.02 -13 33 C-9.9 32.57 -9.9 32.57 -6.38 32.69 C-4.62 32.72 -4.62 32.72 -2.84 32.76 C0 33 0 33 1 34 C1.09 36.07 1.11 38.15 1.1 40.22 C1.09 41.48 1.09 42.74 1.09 44.04 C1.08 45.38 1.07 46.72 1.06 48.06 C1.06 49.41 1.05 50.75 1.05 52.1 C1.04 55.4 1.02 58.7 1 62 C-9.6 64.26 -21.63 64.37 -31.18 58.71 C-38.72 53.4 -44.3 47.25 -46 38 C-47.06 27.72 -45.11 19.68 -40.19 10.69 C-34 3.09 -27.07 -0.57 -17.56 -2.81 C-11.47 -3.13 -5.18 -3.45 0 0 Z " fill="#000100" transform="translate(680,1125)"/>
<path d="M0 0 C1.28 0 2.56 0.01 3.88 0.01 C5.15 0.01 6.43 0 7.75 0 C10.88 0.13 10.88 0.13 11.88 1.13 C11.92 2.8 11.92 4.47 11.88 6.13 C9.89 7.12 9.89 7.12 7.88 8.13 C7.8 14.02 7.75 19.91 7.71 25.8 C7.7 27.81 7.67 29.81 7.65 31.81 C7.61 34.69 7.6 37.57 7.58 40.46 C7.57 41.35 7.55 42.24 7.54 43.16 C7.53 48 7.73 51.2 10.88 55.13 C14.54 58.44 17.35 59.02 22.19 59.38 C26.57 59.09 29.01 58.18 32.88 56.13 C34.99 52.95 35.12 52.2 35.1 48.57 C35.1 47.19 35.1 47.19 35.1 45.78 C35.09 44.79 35.08 43.8 35.07 42.78 C35.07 41.25 35.07 41.25 35.06 39.7 C35.05 36.45 35.03 33.2 35 29.95 C34.99 27.74 34.98 25.54 34.97 23.34 C34.95 17.94 34.92 12.53 34.88 7.13 C33.55 6.47 32.24 5.81 30.88 5.13 C31.75 1.26 31.75 1.26 32.88 0.13 C35.04 0.03 37.21 0 39.38 0.01 C40.56 0.01 41.75 0 42.97 0 C45.88 0.13 45.88 0.13 46.88 1.13 C46.92 2.8 46.92 4.47 46.88 6.13 C44.89 7.12 44.89 7.12 42.88 8.13 C42.87 8.7 42.86 9.26 42.86 9.85 C42.79 15.73 42.71 21.62 42.61 27.51 C42.58 29.71 42.55 31.91 42.53 34.1 C42.49 37.26 42.44 40.42 42.39 43.58 C42.38 45.05 42.38 45.05 42.37 46.55 C42.24 52.67 41.53 56.35 37.19 60.9 C36.32 61.63 36.32 61.63 35.44 62.38 C34.86 62.88 34.29 63.38 33.69 63.9 C28.61 67.35 21.75 66.56 15.88 66.13 C10.62 64.91 6.66 61.83 2.88 58.13 C1.23 54.75 0.62 51.99 0.56 48.25 C0.54 47.31 0.52 46.37 0.5 45.4 C0.48 44.4 0.47 43.4 0.46 42.36 C0.44 41.33 0.42 40.29 0.4 39.22 C0.34 35.92 0.3 32.62 0.25 29.32 C0.21 27.08 0.17 24.84 0.13 22.6 C0.04 17.11 -0.05 11.62 -0.12 6.13 C-1.77 5.8 -3.42 5.47 -5.12 5.13 C-4 0.17 -4 0.17 0 0 Z " fill="#000100" transform="translate(691.125,1121.8671875)"/>
<path d="M0 0 C1.27 -0 2.54 -0.01 3.85 -0.01 C6.94 0.12 6.94 0.12 7.94 1.12 C7.98 2.79 7.98 4.46 7.94 6.12 C6.29 6.45 4.64 6.79 2.94 7.12 C2.94 23.95 2.94 40.79 2.94 58.12 C9.87 58.45 16.8 58.79 23.94 59.12 C24.93 56.15 25.92 53.18 26.94 50.12 C27.93 49.8 28.92 49.46 29.94 49.12 C30.27 49.45 30.6 49.79 30.94 50.12 C30.87 52.25 30.74 54.38 30.56 56.5 C30.43 58.24 30.43 58.24 30.29 60.02 C29.94 63.12 29.94 63.12 28.94 66.12 C16.73 66.12 4.52 66.12 -8.06 66.12 C-8.39 64.81 -8.72 63.48 -9.06 62.12 C-8.4 61.46 -7.74 60.81 -7.06 60.12 C-6.07 60.12 -5.08 60.12 -4.06 60.12 C-4.39 42.63 -4.72 25.14 -5.06 7.12 C-7.54 6.13 -7.54 6.13 -10.06 5.12 C-9.69 3.19 -9.69 3.19 -9.06 1.12 C-6.08 -0.37 -3.32 -0.01 0 0 Z " fill="#000100" transform="translate(510.0625,1121.875)"/>
<path d="M0 0 C2.64 0 5.28 0 8 0 C8.62 1.88 8.62 1.88 9 4 C8.34 4.66 7.68 5.32 7 6 C6.76 8.44 6.76 8.44 6.88 11.12 C6.92 12.73 6.96 14.34 7 16 C12.28 16.33 17.56 16.66 23 17 C22.5 10.57 22.5 10.57 22 4 C21.01 3.67 20.02 3.34 19 3 C19.66 2.01 20.32 1.02 21 0 C22.95 -0.29 22.95 -0.29 25.12 -0.19 C26.4 -0.13 27.68 -0.06 29 0 C29.62 1.88 29.62 1.88 30 4 C29.34 4.66 28.68 5.32 28 6 C27.69 8.98 27.69 8.98 27.73 12.47 C27.73 13.76 27.73 15.05 27.73 16.39 C27.73 17.06 27.73 17.74 27.74 18.43 C27.75 20.49 27.74 22.55 27.73 24.61 C27.73 26.55 27.73 26.55 27.73 28.53 C27.74 29.72 27.74 30.91 27.74 32.14 C27.7 35.13 27.7 35.13 30 37 C30 37.99 30 38.98 30 40 C27.03 40 24.06 40 21 40 C20.67 39.01 20.34 38.02 20 37 C20.99 36.5 20.99 36.5 22 36 C22 31.71 22 27.42 22 23 C19.69 22.97 17.38 22.95 15.06 22.94 C13.77 22.93 12.49 22.91 11.16 22.9 C8.14 22.63 8.14 22.63 7 24 C6.88 25.81 6.82 27.62 6.81 29.44 C6.79 30.92 6.79 30.92 6.77 32.43 C6.74 35.17 6.74 35.17 9 37 C9 37.99 9 38.98 9 40 C6.03 40 3.06 40 0 40 C-0.5 38.51 -0.5 38.51 -1 37 C-0.01 36.5 -0.01 36.5 1 36 C1 25.44 1 14.88 1 4 C0.34 4 -0.32 4 -1 4 C-0.67 2.68 -0.34 1.36 0 0 Z " fill="#F7FAF9" transform="translate(646,823)"/>
<path d="M0 0 C0.87 0.01 1.74 0.02 2.63 0.03 C3.58 0.04 4.52 0.04 5.49 0.05 C6.47 0.07 7.46 0.08 8.47 0.1 C9.46 0.11 10.46 0.12 11.48 0.13 C13.93 0.15 16.39 0.19 18.85 0.23 C20.45 3.44 19.9 6.66 19.85 10.23 C15.97 8.48 15.97 8.48 14.85 6.23 C13.37 6.2 11.89 6.18 10.41 6.16 C9.58 6.15 8.76 6.14 7.91 6.13 C5.85 5.99 5.85 5.99 4.85 7.23 C4.77 8.91 4.76 10.6 4.78 12.29 C4.8 13.67 4.8 13.67 4.81 15.07 C4.82 15.78 4.83 16.5 4.85 17.23 C7.16 17.56 9.47 17.89 11.85 18.23 C12.18 19.55 12.51 20.87 12.85 22.23 C11.14 22.44 11.14 22.44 9.41 22.66 C6.04 22.84 6.04 22.84 4.85 24.23 C4.77 26.08 4.76 27.94 4.78 29.79 C4.8 31.58 4.82 33.38 4.85 35.23 C8.81 35.56 12.77 35.89 16.85 36.23 C17.18 34.58 17.51 32.93 17.85 31.23 C18.84 31.23 19.83 31.23 20.85 31.23 C20.97 37.98 20.97 37.98 19.85 40.23 C12.26 40.23 4.67 40.23 -3.15 40.23 C-3.15 37.23 -3.15 37.23 -2.15 36.23 C-1.94 31.85 -1.97 27.46 -1.97 23.07 C-1.97 20.87 -1.95 18.66 -1.93 16.46 C-1.93 15.06 -1.93 13.66 -1.92 12.27 C-1.92 10.99 -1.92 9.71 -1.91 8.4 C-1.91 5.07 -1.91 5.07 -4.15 2.23 C-2.15 0.23 -2.15 0.23 0 0 Z " fill="#F7FAF9" transform="translate(683.15478515625,822.77294921875)"/>
<path d="M0 0 C1.12 0 2.24 0.01 3.39 0.01 C5.07 -0.01 5.07 -0.01 6.78 -0.04 C8.38 -0.04 8.38 -0.04 10.02 -0.04 C11 -0.04 11.98 -0.05 12.99 -0.05 C14.18 0.13 14.18 0.13 15.39 0.32 C17.82 3.97 17.55 6.03 17.39 10.32 C13.52 8.57 13.52 8.57 12.39 6.32 C10.72 6.28 9.06 6.28 7.39 6.32 C4.6 9.11 6.06 17.45 6.02 21.2 C5.98 22.5 5.94 23.81 5.9 25.15 C5.89 26.4 5.88 27.65 5.87 28.94 C5.85 30.09 5.83 31.24 5.81 32.43 C6.09 35.55 6.09 35.55 8.92 37.1 C9.74 37.5 10.55 37.91 11.39 38.32 C11.39 38.98 11.39 39.64 11.39 40.32 C6.11 40.32 0.83 40.32 -4.61 40.32 C-4.28 39.33 -3.95 38.34 -3.61 37.32 C-1.63 36.83 -1.63 36.83 0.39 36.32 C0.06 26.42 -0.27 16.52 -0.61 6.32 C-2.59 6.32 -4.57 6.32 -6.61 6.32 C-6.94 7.64 -7.27 8.96 -7.61 10.32 C-8.93 9.99 -10.25 9.66 -11.61 9.32 C-10.6 0.24 -8.53 0.06 0 0 Z " fill="#F7FAF9" transform="translate(625.609375,822.677734375)"/>
<path d="M0 0 C0.66 0 1.32 0 2 0 C3.17 3.96 4.34 7.92 5.5 11.88 C5.83 13 6.17 14.13 6.51 15.29 C6.99 16.91 6.99 16.91 7.47 18.55 C7.76 19.55 8.06 20.54 8.36 21.57 C9 24 9 24 9 26 C3.72 26 -1.56 26 -7 26 C-6.41 20.11 -5.23 14.72 -3.5 9.06 C-3.27 8.3 -3.05 7.53 -2.82 6.74 C-1.14 1.14 -1.14 1.14 0 0 Z " fill="#F9D819" transform="translate(608,1133)"/>
</svg>
